<svg version="1.2" xmlns="http://www.w3.org/2000/svg" viewBox="0 0 1280 720" width="1280" height="720">
	<title>New Project</title>
	<style>
		.s0 { fill: #000000;stroke: #000000;stroke-miterlimit:10;stroke-width: 5 } 
	</style>
	<path id="GigaESC" class="s0" aria-label="GigaESC"  d="m324.5 383v-75q0-3.1 1.1-5.8 1.2-2.8 3.3-4.8 2-2 4.7-3.2 2.8-1.2 5.9-1.2h57q3 0 5.8 1.2 2.7 1.2 4.8 3.2 2 2 3.2 4.8 1.2 2.7 1.2 5.8v13.5h-15v-13.5h-57v75h57v-25.5h-28.5v-15h43.5v40.5q0 3.1-1.2 5.8-1.2 2.8-3.2 4.8-2.1 2.1-4.8 3.2-2.8 1.2-5.8 1.2h-57q-3.1 0-5.9-1.2-2.7-1.1-4.7-3.2-2.1-2-3.3-4.8-1.1-2.7-1.1-5.8zm113.2-63h14.4v78h-14.4zm-0.7-15v-15h15.9v15zm39.9 75.6v-46.2q0-3 1.1-5.6 1.2-2.6 3.1-4.6 1.9-1.9 4.6-3 2.6-1.2 5.5-1.2h25.9q2.9 0 5.4 1.1 2.6 1 4.5 2.9 2 1.9 3.1 4.4 1.3 2.5 1.4 5.4v-13.8h14.4v95.1q0 3-1.2 5.6-1.1 2.6-3.1 4.6-1.9 1.9-4.5 3.1-2.6 1.1-5.6 1.1h-45.6v-14.4h45.6v-20.1h-40.3q-2.9 0-5.5-1.1-2.7-1.2-4.6-3.1-1.9-2-3.1-4.6-1.1-2.6-1.1-5.6zm14.3 0h40.3v-46.2h-40.3zm78.7 3v-19.6q0-3 1.1-5.6 1.2-2.6 3.1-4.6 2-2 4.6-3.1 2.6-1.1 5.6-1.1h37.2v-15.1h-47.1v-14.4h47.1q3 0 5.6 1.1 2.6 1.1 4.5 3.1 2 1.9 3.1 4.5 1.2 2.7 1.2 5.7v63.6h-14.4v-13.2q-0.3 2.7-1.5 5.1-1.2 2.4-3.2 4.3-1.9 1.7-4.4 2.7-2.5 1.1-5.3 1.1h-22.8q-3 0-5.6-1.1-2.6-1.2-4.6-3.1-1.9-2-3.1-4.6-1.1-2.7-1.1-5.7zm14.4-19.6v19.6h37.2v-19.6zm77.1 34.1v-105.1h76.5v15h-61.5v30.1h52.5v15h-52.5v29.9h61.5v15.1zm165-45h-50.9q-3.1 0-5.9-1.2-2.7-1.2-4.8-3.2-2-2.1-3.2-4.8-1.1-2.7-1.1-5.8v-30.1q0-3 1.1-5.7 1.2-2.8 3.2-4.8 2.1-2.1 4.8-3.2 2.8-1.3 5.9-1.3h50.9q3.1 0 5.8 1.3 2.8 1.1 4.9 3.2 2 2 3.2 4.8 1.2 2.7 1.2 5.7v13.6h-15.1v-13.6h-50.9v30.1h50.9q3.1 0 5.8 1.1 2.8 1.2 4.9 3.3 2 2 3.2 4.8 1.2 2.7 1.2 5.8v29.9q0 3.1-1.2 5.9-1.2 2.7-3.2 4.8-2.1 2-4.9 3.2-2.7 1.2-5.8 1.2h-52.4q-3.1 0-5.9-1.2-2.7-1.2-4.7-3.2-2.1-2.1-3.2-4.8-1.2-2.8-1.2-5.9v-13.4h15v13.4h52.4zm42.1 30v-75q0-3.1 1.2-5.8 1.1-2.8 3.2-4.7 2-2.1 4.7-3.3 2.8-1.2 5.9-1.2h57q3.1 0 5.8 1.2 2.8 1.2 4.8 3.3 2.1 1.9 3.2 4.7 1.2 2.7 1.2 5.8v13.6h-15v-13.6h-57v75h57v-13.5h15v13.5q0 3.1-1.2 5.9-1.1 2.7-3.2 4.7-2 2.1-4.8 3.2-2.7 1.2-5.8 1.2h-57q-3.1 0-5.9-1.2-2.7-1.1-4.7-3.2-2.1-2-3.2-4.7-1.2-2.8-1.2-5.9z"/>
</svg>