%TF.GenerationSoftware,KiCad,Pcbnew,7.0.5*%
%TF.CreationDate,2023-06-26T01:29:26+02:00*%
%TF.ProjectId,GigaVesc,47696761-5665-4736-932e-6b696361645f,rev?*%
%TF.SameCoordinates,Original*%
%TF.FileFunction,Profile,NP*%
%FSLAX46Y46*%
G04 Gerber Fmt 4.6, Leading zero omitted, Abs format (unit mm)*
G04 Created by KiCad (PCBNEW 7.0.5) date 2023-06-26 01:29:26*
%MOMM*%
%LPD*%
G01*
G04 APERTURE LIST*
%TA.AperFunction,Profile*%
%ADD10C,0.100000*%
%TD*%
%ADD11C,0.150000*%
G04 APERTURE END LIST*
D10*
X116000000Y-70000000D02*
X196000000Y-70000000D01*
X196000000Y-125000000D01*
X116000000Y-125000000D01*
X116000000Y-70000000D01*
D11*
X151571429Y-57153391D02*
X151476191Y-57105772D01*
X151476191Y-57105772D02*
X151428572Y-57058153D01*
X151428572Y-57058153D02*
X151380953Y-56962915D01*
X151380953Y-56962915D02*
X151380953Y-56915296D01*
X151380953Y-56915296D02*
X151428572Y-56820058D01*
X151428572Y-56820058D02*
X151476191Y-56772439D01*
X151476191Y-56772439D02*
X151571429Y-56724820D01*
X151571429Y-56724820D02*
X151761905Y-56724820D01*
X151761905Y-56724820D02*
X151857143Y-56772439D01*
X151857143Y-56772439D02*
X151904762Y-56820058D01*
X151904762Y-56820058D02*
X151952381Y-56915296D01*
X151952381Y-56915296D02*
X151952381Y-56962915D01*
X151952381Y-56962915D02*
X151904762Y-57058153D01*
X151904762Y-57058153D02*
X151857143Y-57105772D01*
X151857143Y-57105772D02*
X151761905Y-57153391D01*
X151761905Y-57153391D02*
X151571429Y-57153391D01*
X151571429Y-57153391D02*
X151476191Y-57201010D01*
X151476191Y-57201010D02*
X151428572Y-57248629D01*
X151428572Y-57248629D02*
X151380953Y-57343867D01*
X151380953Y-57343867D02*
X151380953Y-57534343D01*
X151380953Y-57534343D02*
X151428572Y-57629581D01*
X151428572Y-57629581D02*
X151476191Y-57677201D01*
X151476191Y-57677201D02*
X151571429Y-57724820D01*
X151571429Y-57724820D02*
X151761905Y-57724820D01*
X151761905Y-57724820D02*
X151857143Y-57677201D01*
X151857143Y-57677201D02*
X151904762Y-57629581D01*
X151904762Y-57629581D02*
X151952381Y-57534343D01*
X151952381Y-57534343D02*
X151952381Y-57343867D01*
X151952381Y-57343867D02*
X151904762Y-57248629D01*
X151904762Y-57248629D02*
X151857143Y-57201010D01*
X151857143Y-57201010D02*
X151761905Y-57153391D01*
X152571429Y-56724820D02*
X152666667Y-56724820D01*
X152666667Y-56724820D02*
X152761905Y-56772439D01*
X152761905Y-56772439D02*
X152809524Y-56820058D01*
X152809524Y-56820058D02*
X152857143Y-56915296D01*
X152857143Y-56915296D02*
X152904762Y-57105772D01*
X152904762Y-57105772D02*
X152904762Y-57343867D01*
X152904762Y-57343867D02*
X152857143Y-57534343D01*
X152857143Y-57534343D02*
X152809524Y-57629581D01*
X152809524Y-57629581D02*
X152761905Y-57677201D01*
X152761905Y-57677201D02*
X152666667Y-57724820D01*
X152666667Y-57724820D02*
X152571429Y-57724820D01*
X152571429Y-57724820D02*
X152476191Y-57677201D01*
X152476191Y-57677201D02*
X152428572Y-57629581D01*
X152428572Y-57629581D02*
X152380953Y-57534343D01*
X152380953Y-57534343D02*
X152333334Y-57343867D01*
X152333334Y-57343867D02*
X152333334Y-57105772D01*
X152333334Y-57105772D02*
X152380953Y-56915296D01*
X152380953Y-56915296D02*
X152428572Y-56820058D01*
X152428572Y-56820058D02*
X152476191Y-56772439D01*
X152476191Y-56772439D02*
X152571429Y-56724820D01*
X153333334Y-57629581D02*
X153380953Y-57677201D01*
X153380953Y-57677201D02*
X153333334Y-57724820D01*
X153333334Y-57724820D02*
X153285715Y-57677201D01*
X153285715Y-57677201D02*
X153333334Y-57629581D01*
X153333334Y-57629581D02*
X153333334Y-57724820D01*
X154000000Y-56724820D02*
X154095238Y-56724820D01*
X154095238Y-56724820D02*
X154190476Y-56772439D01*
X154190476Y-56772439D02*
X154238095Y-56820058D01*
X154238095Y-56820058D02*
X154285714Y-56915296D01*
X154285714Y-56915296D02*
X154333333Y-57105772D01*
X154333333Y-57105772D02*
X154333333Y-57343867D01*
X154333333Y-57343867D02*
X154285714Y-57534343D01*
X154285714Y-57534343D02*
X154238095Y-57629581D01*
X154238095Y-57629581D02*
X154190476Y-57677201D01*
X154190476Y-57677201D02*
X154095238Y-57724820D01*
X154095238Y-57724820D02*
X154000000Y-57724820D01*
X154000000Y-57724820D02*
X153904762Y-57677201D01*
X153904762Y-57677201D02*
X153857143Y-57629581D01*
X153857143Y-57629581D02*
X153809524Y-57534343D01*
X153809524Y-57534343D02*
X153761905Y-57343867D01*
X153761905Y-57343867D02*
X153761905Y-57105772D01*
X153761905Y-57105772D02*
X153809524Y-56915296D01*
X153809524Y-56915296D02*
X153857143Y-56820058D01*
X153857143Y-56820058D02*
X153904762Y-56772439D01*
X153904762Y-56772439D02*
X154000000Y-56724820D01*
X154952381Y-56724820D02*
X155047619Y-56724820D01*
X155047619Y-56724820D02*
X155142857Y-56772439D01*
X155142857Y-56772439D02*
X155190476Y-56820058D01*
X155190476Y-56820058D02*
X155238095Y-56915296D01*
X155238095Y-56915296D02*
X155285714Y-57105772D01*
X155285714Y-57105772D02*
X155285714Y-57343867D01*
X155285714Y-57343867D02*
X155238095Y-57534343D01*
X155238095Y-57534343D02*
X155190476Y-57629581D01*
X155190476Y-57629581D02*
X155142857Y-57677201D01*
X155142857Y-57677201D02*
X155047619Y-57724820D01*
X155047619Y-57724820D02*
X154952381Y-57724820D01*
X154952381Y-57724820D02*
X154857143Y-57677201D01*
X154857143Y-57677201D02*
X154809524Y-57629581D01*
X154809524Y-57629581D02*
X154761905Y-57534343D01*
X154761905Y-57534343D02*
X154714286Y-57343867D01*
X154714286Y-57343867D02*
X154714286Y-57105772D01*
X154714286Y-57105772D02*
X154761905Y-56915296D01*
X154761905Y-56915296D02*
X154809524Y-56820058D01*
X154809524Y-56820058D02*
X154857143Y-56772439D01*
X154857143Y-56772439D02*
X154952381Y-56724820D01*
X155904762Y-56724820D02*
X156000000Y-56724820D01*
X156000000Y-56724820D02*
X156095238Y-56772439D01*
X156095238Y-56772439D02*
X156142857Y-56820058D01*
X156142857Y-56820058D02*
X156190476Y-56915296D01*
X156190476Y-56915296D02*
X156238095Y-57105772D01*
X156238095Y-57105772D02*
X156238095Y-57343867D01*
X156238095Y-57343867D02*
X156190476Y-57534343D01*
X156190476Y-57534343D02*
X156142857Y-57629581D01*
X156142857Y-57629581D02*
X156095238Y-57677201D01*
X156095238Y-57677201D02*
X156000000Y-57724820D01*
X156000000Y-57724820D02*
X155904762Y-57724820D01*
X155904762Y-57724820D02*
X155809524Y-57677201D01*
X155809524Y-57677201D02*
X155761905Y-57629581D01*
X155761905Y-57629581D02*
X155714286Y-57534343D01*
X155714286Y-57534343D02*
X155666667Y-57343867D01*
X155666667Y-57343867D02*
X155666667Y-57105772D01*
X155666667Y-57105772D02*
X155714286Y-56915296D01*
X155714286Y-56915296D02*
X155761905Y-56820058D01*
X155761905Y-56820058D02*
X155809524Y-56772439D01*
X155809524Y-56772439D02*
X155904762Y-56724820D01*
X156857143Y-56724820D02*
X156952381Y-56724820D01*
X156952381Y-56724820D02*
X157047619Y-56772439D01*
X157047619Y-56772439D02*
X157095238Y-56820058D01*
X157095238Y-56820058D02*
X157142857Y-56915296D01*
X157142857Y-56915296D02*
X157190476Y-57105772D01*
X157190476Y-57105772D02*
X157190476Y-57343867D01*
X157190476Y-57343867D02*
X157142857Y-57534343D01*
X157142857Y-57534343D02*
X157095238Y-57629581D01*
X157095238Y-57629581D02*
X157047619Y-57677201D01*
X157047619Y-57677201D02*
X156952381Y-57724820D01*
X156952381Y-57724820D02*
X156857143Y-57724820D01*
X156857143Y-57724820D02*
X156761905Y-57677201D01*
X156761905Y-57677201D02*
X156714286Y-57629581D01*
X156714286Y-57629581D02*
X156666667Y-57534343D01*
X156666667Y-57534343D02*
X156619048Y-57343867D01*
X156619048Y-57343867D02*
X156619048Y-57105772D01*
X156619048Y-57105772D02*
X156666667Y-56915296D01*
X156666667Y-56915296D02*
X156714286Y-56820058D01*
X156714286Y-56820058D02*
X156761905Y-56772439D01*
X156761905Y-56772439D02*
X156857143Y-56724820D01*
X158380953Y-57724820D02*
X158380953Y-57058153D01*
X158380953Y-57153391D02*
X158428572Y-57105772D01*
X158428572Y-57105772D02*
X158523810Y-57058153D01*
X158523810Y-57058153D02*
X158666667Y-57058153D01*
X158666667Y-57058153D02*
X158761905Y-57105772D01*
X158761905Y-57105772D02*
X158809524Y-57201010D01*
X158809524Y-57201010D02*
X158809524Y-57724820D01*
X158809524Y-57201010D02*
X158857143Y-57105772D01*
X158857143Y-57105772D02*
X158952381Y-57058153D01*
X158952381Y-57058153D02*
X159095238Y-57058153D01*
X159095238Y-57058153D02*
X159190477Y-57105772D01*
X159190477Y-57105772D02*
X159238096Y-57201010D01*
X159238096Y-57201010D02*
X159238096Y-57724820D01*
X159714286Y-57724820D02*
X159714286Y-57058153D01*
X159714286Y-57153391D02*
X159761905Y-57105772D01*
X159761905Y-57105772D02*
X159857143Y-57058153D01*
X159857143Y-57058153D02*
X160000000Y-57058153D01*
X160000000Y-57058153D02*
X160095238Y-57105772D01*
X160095238Y-57105772D02*
X160142857Y-57201010D01*
X160142857Y-57201010D02*
X160142857Y-57724820D01*
X160142857Y-57201010D02*
X160190476Y-57105772D01*
X160190476Y-57105772D02*
X160285714Y-57058153D01*
X160285714Y-57058153D02*
X160428571Y-57058153D01*
X160428571Y-57058153D02*
X160523810Y-57105772D01*
X160523810Y-57105772D02*
X160571429Y-57201010D01*
X160571429Y-57201010D02*
X160571429Y-57724820D01*
D10*
X196000000Y-69500000D02*
X196000000Y-57833581D01*
X116000000Y-69500000D02*
X116000000Y-57833581D01*
X196000000Y-58420001D02*
X116000000Y-58420001D01*
X196000000Y-58420001D02*
X116000000Y-58420001D01*
X196000000Y-58420001D02*
X194873496Y-59006422D01*
X196000000Y-58420001D02*
X194873496Y-57833580D01*
X116000000Y-58420001D02*
X117126504Y-57833580D01*
X116000000Y-58420001D02*
X117126504Y-59006422D01*
D11*
X211029819Y-101595237D02*
X211029819Y-102071427D01*
X211029819Y-102071427D02*
X211506009Y-102119046D01*
X211506009Y-102119046D02*
X211458390Y-102071427D01*
X211458390Y-102071427D02*
X211410771Y-101976189D01*
X211410771Y-101976189D02*
X211410771Y-101738094D01*
X211410771Y-101738094D02*
X211458390Y-101642856D01*
X211458390Y-101642856D02*
X211506009Y-101595237D01*
X211506009Y-101595237D02*
X211601247Y-101547618D01*
X211601247Y-101547618D02*
X211839342Y-101547618D01*
X211839342Y-101547618D02*
X211934580Y-101595237D01*
X211934580Y-101595237D02*
X211982200Y-101642856D01*
X211982200Y-101642856D02*
X212029819Y-101738094D01*
X212029819Y-101738094D02*
X212029819Y-101976189D01*
X212029819Y-101976189D02*
X211982200Y-102071427D01*
X211982200Y-102071427D02*
X211934580Y-102119046D01*
X211029819Y-100642856D02*
X211029819Y-101119046D01*
X211029819Y-101119046D02*
X211506009Y-101166665D01*
X211506009Y-101166665D02*
X211458390Y-101119046D01*
X211458390Y-101119046D02*
X211410771Y-101023808D01*
X211410771Y-101023808D02*
X211410771Y-100785713D01*
X211410771Y-100785713D02*
X211458390Y-100690475D01*
X211458390Y-100690475D02*
X211506009Y-100642856D01*
X211506009Y-100642856D02*
X211601247Y-100595237D01*
X211601247Y-100595237D02*
X211839342Y-100595237D01*
X211839342Y-100595237D02*
X211934580Y-100642856D01*
X211934580Y-100642856D02*
X211982200Y-100690475D01*
X211982200Y-100690475D02*
X212029819Y-100785713D01*
X212029819Y-100785713D02*
X212029819Y-101023808D01*
X212029819Y-101023808D02*
X211982200Y-101119046D01*
X211982200Y-101119046D02*
X211934580Y-101166665D01*
X211934580Y-100166665D02*
X211982200Y-100119046D01*
X211982200Y-100119046D02*
X212029819Y-100166665D01*
X212029819Y-100166665D02*
X211982200Y-100214284D01*
X211982200Y-100214284D02*
X211934580Y-100166665D01*
X211934580Y-100166665D02*
X212029819Y-100166665D01*
X211029819Y-99499999D02*
X211029819Y-99404761D01*
X211029819Y-99404761D02*
X211077438Y-99309523D01*
X211077438Y-99309523D02*
X211125057Y-99261904D01*
X211125057Y-99261904D02*
X211220295Y-99214285D01*
X211220295Y-99214285D02*
X211410771Y-99166666D01*
X211410771Y-99166666D02*
X211648866Y-99166666D01*
X211648866Y-99166666D02*
X211839342Y-99214285D01*
X211839342Y-99214285D02*
X211934580Y-99261904D01*
X211934580Y-99261904D02*
X211982200Y-99309523D01*
X211982200Y-99309523D02*
X212029819Y-99404761D01*
X212029819Y-99404761D02*
X212029819Y-99499999D01*
X212029819Y-99499999D02*
X211982200Y-99595237D01*
X211982200Y-99595237D02*
X211934580Y-99642856D01*
X211934580Y-99642856D02*
X211839342Y-99690475D01*
X211839342Y-99690475D02*
X211648866Y-99738094D01*
X211648866Y-99738094D02*
X211410771Y-99738094D01*
X211410771Y-99738094D02*
X211220295Y-99690475D01*
X211220295Y-99690475D02*
X211125057Y-99642856D01*
X211125057Y-99642856D02*
X211077438Y-99595237D01*
X211077438Y-99595237D02*
X211029819Y-99499999D01*
X211029819Y-98547618D02*
X211029819Y-98452380D01*
X211029819Y-98452380D02*
X211077438Y-98357142D01*
X211077438Y-98357142D02*
X211125057Y-98309523D01*
X211125057Y-98309523D02*
X211220295Y-98261904D01*
X211220295Y-98261904D02*
X211410771Y-98214285D01*
X211410771Y-98214285D02*
X211648866Y-98214285D01*
X211648866Y-98214285D02*
X211839342Y-98261904D01*
X211839342Y-98261904D02*
X211934580Y-98309523D01*
X211934580Y-98309523D02*
X211982200Y-98357142D01*
X211982200Y-98357142D02*
X212029819Y-98452380D01*
X212029819Y-98452380D02*
X212029819Y-98547618D01*
X212029819Y-98547618D02*
X211982200Y-98642856D01*
X211982200Y-98642856D02*
X211934580Y-98690475D01*
X211934580Y-98690475D02*
X211839342Y-98738094D01*
X211839342Y-98738094D02*
X211648866Y-98785713D01*
X211648866Y-98785713D02*
X211410771Y-98785713D01*
X211410771Y-98785713D02*
X211220295Y-98738094D01*
X211220295Y-98738094D02*
X211125057Y-98690475D01*
X211125057Y-98690475D02*
X211077438Y-98642856D01*
X211077438Y-98642856D02*
X211029819Y-98547618D01*
X211029819Y-97595237D02*
X211029819Y-97499999D01*
X211029819Y-97499999D02*
X211077438Y-97404761D01*
X211077438Y-97404761D02*
X211125057Y-97357142D01*
X211125057Y-97357142D02*
X211220295Y-97309523D01*
X211220295Y-97309523D02*
X211410771Y-97261904D01*
X211410771Y-97261904D02*
X211648866Y-97261904D01*
X211648866Y-97261904D02*
X211839342Y-97309523D01*
X211839342Y-97309523D02*
X211934580Y-97357142D01*
X211934580Y-97357142D02*
X211982200Y-97404761D01*
X211982200Y-97404761D02*
X212029819Y-97499999D01*
X212029819Y-97499999D02*
X212029819Y-97595237D01*
X212029819Y-97595237D02*
X211982200Y-97690475D01*
X211982200Y-97690475D02*
X211934580Y-97738094D01*
X211934580Y-97738094D02*
X211839342Y-97785713D01*
X211839342Y-97785713D02*
X211648866Y-97833332D01*
X211648866Y-97833332D02*
X211410771Y-97833332D01*
X211410771Y-97833332D02*
X211220295Y-97785713D01*
X211220295Y-97785713D02*
X211125057Y-97738094D01*
X211125057Y-97738094D02*
X211077438Y-97690475D01*
X211077438Y-97690475D02*
X211029819Y-97595237D01*
X211029819Y-96642856D02*
X211029819Y-96547618D01*
X211029819Y-96547618D02*
X211077438Y-96452380D01*
X211077438Y-96452380D02*
X211125057Y-96404761D01*
X211125057Y-96404761D02*
X211220295Y-96357142D01*
X211220295Y-96357142D02*
X211410771Y-96309523D01*
X211410771Y-96309523D02*
X211648866Y-96309523D01*
X211648866Y-96309523D02*
X211839342Y-96357142D01*
X211839342Y-96357142D02*
X211934580Y-96404761D01*
X211934580Y-96404761D02*
X211982200Y-96452380D01*
X211982200Y-96452380D02*
X212029819Y-96547618D01*
X212029819Y-96547618D02*
X212029819Y-96642856D01*
X212029819Y-96642856D02*
X211982200Y-96738094D01*
X211982200Y-96738094D02*
X211934580Y-96785713D01*
X211934580Y-96785713D02*
X211839342Y-96833332D01*
X211839342Y-96833332D02*
X211648866Y-96880951D01*
X211648866Y-96880951D02*
X211410771Y-96880951D01*
X211410771Y-96880951D02*
X211220295Y-96833332D01*
X211220295Y-96833332D02*
X211125057Y-96785713D01*
X211125057Y-96785713D02*
X211077438Y-96738094D01*
X211077438Y-96738094D02*
X211029819Y-96642856D01*
X212029819Y-95119046D02*
X211363152Y-95119046D01*
X211458390Y-95119046D02*
X211410771Y-95071427D01*
X211410771Y-95071427D02*
X211363152Y-94976189D01*
X211363152Y-94976189D02*
X211363152Y-94833332D01*
X211363152Y-94833332D02*
X211410771Y-94738094D01*
X211410771Y-94738094D02*
X211506009Y-94690475D01*
X211506009Y-94690475D02*
X212029819Y-94690475D01*
X211506009Y-94690475D02*
X211410771Y-94642856D01*
X211410771Y-94642856D02*
X211363152Y-94547618D01*
X211363152Y-94547618D02*
X211363152Y-94404761D01*
X211363152Y-94404761D02*
X211410771Y-94309522D01*
X211410771Y-94309522D02*
X211506009Y-94261903D01*
X211506009Y-94261903D02*
X212029819Y-94261903D01*
X212029819Y-93785713D02*
X211363152Y-93785713D01*
X211458390Y-93785713D02*
X211410771Y-93738094D01*
X211410771Y-93738094D02*
X211363152Y-93642856D01*
X211363152Y-93642856D02*
X211363152Y-93499999D01*
X211363152Y-93499999D02*
X211410771Y-93404761D01*
X211410771Y-93404761D02*
X211506009Y-93357142D01*
X211506009Y-93357142D02*
X212029819Y-93357142D01*
X211506009Y-93357142D02*
X211410771Y-93309523D01*
X211410771Y-93309523D02*
X211363152Y-93214285D01*
X211363152Y-93214285D02*
X211363152Y-93071428D01*
X211363152Y-93071428D02*
X211410771Y-92976189D01*
X211410771Y-92976189D02*
X211506009Y-92928570D01*
X211506009Y-92928570D02*
X212029819Y-92928570D01*
D10*
X196500000Y-125000000D02*
X213311420Y-125000000D01*
X196500000Y-70000000D02*
X213311420Y-70000000D01*
X212725000Y-125000000D02*
X212725000Y-70000000D01*
X212725000Y-125000000D02*
X212725000Y-70000000D01*
X212725000Y-125000000D02*
X212138579Y-123873496D01*
X212725000Y-125000000D02*
X213311421Y-123873496D01*
X212725000Y-70000000D02*
X213311421Y-71126504D01*
X212725000Y-70000000D02*
X212138579Y-71126504D01*
M02*
