M48
; DRILL file {KiCad 7.0.5} date Mon Jun 26 01:29:29 2023
; FORMAT={-:-/ absolute / inch / decimal}
; #@! TF.CreationDate,2023-06-26T01:29:29+02:00
; #@! TF.GenerationSoftware,Kicad,Pcbnew,7.0.5
; #@! TF.FileFunction,Plated,1,2,PTH
FMAT,2
INCH
; #@! TA.AperFunction,Plated,PTH,ComponentDrill
T1C0.0236
; #@! TA.AperFunction,Plated,PTH,ComponentDrill
T2C0.0394
; #@! TA.AperFunction,Plated,PTH,ComponentDrill
T3C0.0512
%
G90
G05
T2
X4.65Y-4.75
X4.6638Y-3.0315
X4.6638Y-3.1315
X4.6638Y-3.2315
X4.6638Y-3.3315
X4.6638Y-3.4315
X4.6638Y-3.5315
X4.6638Y-3.6315
X4.6638Y-3.7315
X4.6638Y-3.8315
X4.6638Y-3.9315
X4.75Y-4.75
X4.7638Y-3.0315
X4.7638Y-3.1315
X4.7638Y-3.2315
X4.7638Y-3.3315
X4.7638Y-3.4315
X4.7638Y-3.5315
X4.7638Y-3.6315
X4.7638Y-3.7315
X4.7638Y-3.8315
X4.7638Y-3.9315
X4.85Y-4.75
X4.95Y-4.75
X5.1496Y-4.75
X5.2496Y-4.75
X5.3496Y-4.75
X5.35Y-3.7752
X5.35Y-3.8752
X5.35Y-3.9752
X5.35Y-4.0752
X5.35Y-4.1752
X5.4496Y-4.75
X5.6494Y-4.75
X5.7494Y-4.75
X5.8494Y-4.75
X5.9494Y-4.75
X6.0494Y-4.75
X6.1494Y-4.75
X6.2494Y-4.75
X6.3494Y-4.75
X6.55Y-4.75
X6.65Y-4.75
X6.75Y-4.75
X6.85Y-4.75
X6.95Y-4.75
X7.05Y-4.75
X7.4984Y-3.2677
X7.4984Y-3.3677
X7.4984Y-3.4677
X7.4984Y-3.5677
X7.4984Y-3.6677
X7.4984Y-3.7677
X7.5984Y-3.2677
X7.5984Y-3.3677
X7.5984Y-3.4677
X7.5984Y-3.5677
X7.5984Y-3.6677
X7.5984Y-3.7677
T3
X5.0321Y-2.975
X5.9179Y-2.975
T1
G00X7.2799Y-4.6311
M15
G01X7.2799Y-4.6744
M16
G05
G00X7.2799Y-4.8016
M15
G01X7.2799Y-4.8331
M16
G05
G00X7.6201Y-4.6311
M15
G01X7.6201Y-4.6744
M16
G05
G00X7.6201Y-4.8016
M15
G01X7.6201Y-4.8331
M16
G05
T0
M30
