%TF.GenerationSoftware,KiCad,Pcbnew,7.0.5*%
%TF.CreationDate,2023-06-26T01:29:26+02:00*%
%TF.ProjectId,GigaVesc,47696761-5665-4736-932e-6b696361645f,rev?*%
%TF.SameCoordinates,Original*%
%TF.FileFunction,Soldermask,Bot*%
%TF.FilePolarity,Negative*%
%FSLAX46Y46*%
G04 Gerber Fmt 4.6, Leading zero omitted, Abs format (unit mm)*
G04 Created by KiCad (PCBNEW 7.0.5) date 2023-06-26 01:29:26*
%MOMM*%
%LPD*%
G01*
G04 APERTURE LIST*
%ADD10R,1.700000X1.700000*%
%ADD11O,1.700000X1.700000*%
%ADD12C,2.700000*%
%ADD13C,3.000000*%
%ADD14C,0.650000*%
%ADD15O,1.000000X2.100000*%
%ADD16O,1.000000X1.800000*%
G04 APERTURE END LIST*
D10*
%TO.C,J7*%
X135890000Y-95890000D03*
D11*
X135890000Y-98430000D03*
X135890000Y-100970000D03*
X135890000Y-103510000D03*
X135890000Y-106050000D03*
%TD*%
D12*
%TO.C,F1*%
X139065000Y-75565000D03*
D13*
X127815000Y-75565000D03*
X150315000Y-75565000D03*
%TD*%
D14*
%TO.C,J9*%
X186340000Y-118680000D03*
X192120000Y-118680000D03*
D15*
X184910000Y-118180000D03*
D16*
X184910000Y-122360000D03*
D15*
X193550000Y-118180000D03*
D16*
X193550000Y-122360000D03*
%TD*%
D10*
%TO.C,J3*%
X138420000Y-120650000D03*
D11*
X135880000Y-120650000D03*
X133340000Y-120650000D03*
X130800000Y-120650000D03*
%TD*%
D10*
%TO.C,J1*%
X161275000Y-120650000D03*
D11*
X158735000Y-120650000D03*
X156195000Y-120650000D03*
X153655000Y-120650000D03*
X151115000Y-120650000D03*
X148575000Y-120650000D03*
X146035000Y-120650000D03*
X143495000Y-120650000D03*
%TD*%
D10*
%TO.C,J5*%
X179070000Y-120650000D03*
D11*
X176530000Y-120650000D03*
X173990000Y-120650000D03*
X171450000Y-120650000D03*
X168910000Y-120650000D03*
X166370000Y-120650000D03*
%TD*%
D10*
%TO.C,J8*%
X125730000Y-120650000D03*
D11*
X123190000Y-120650000D03*
X120650000Y-120650000D03*
X118110000Y-120650000D03*
%TD*%
D10*
%TO.C,J6*%
X121000000Y-77000000D03*
D11*
X118460000Y-77000000D03*
X121000000Y-79540000D03*
X118460000Y-79540000D03*
X121000000Y-82080000D03*
X118460000Y-82080000D03*
X121000000Y-84620000D03*
X118460000Y-84620000D03*
X121000000Y-87160000D03*
X118460000Y-87160000D03*
X121000000Y-89700000D03*
X118460000Y-89700000D03*
X121000000Y-92240000D03*
X118460000Y-92240000D03*
X121000000Y-94780000D03*
X118460000Y-94780000D03*
X121000000Y-97320000D03*
X118460000Y-97320000D03*
X121000000Y-99860000D03*
X118460000Y-99860000D03*
%TD*%
D10*
%TO.C,J2*%
X193000000Y-83000000D03*
D11*
X190460000Y-83000000D03*
X193000000Y-85540000D03*
X190460000Y-85540000D03*
X193000000Y-88080000D03*
X190460000Y-88080000D03*
X193000000Y-90620000D03*
X190460000Y-90620000D03*
X193000000Y-93160000D03*
X190460000Y-93160000D03*
X193000000Y-95700000D03*
X190460000Y-95700000D03*
%TD*%
M02*
