%TF.GenerationSoftware,KiCad,Pcbnew,7.0.5*%
%TF.CreationDate,2023-06-26T01:29:26+02:00*%
%TF.ProjectId,GigaVesc,47696761-5665-4736-932e-6b696361645f,rev?*%
%TF.SameCoordinates,Original*%
%TF.FileFunction,Copper,L1,Top*%
%TF.FilePolarity,Positive*%
%FSLAX46Y46*%
G04 Gerber Fmt 4.6, Leading zero omitted, Abs format (unit mm)*
G04 Created by KiCad (PCBNEW 7.0.5) date 2023-06-26 01:29:26*
%MOMM*%
%LPD*%
G01*
G04 APERTURE LIST*
G04 Aperture macros list*
%AMRoundRect*
0 Rectangle with rounded corners*
0 $1 Rounding radius*
0 $2 $3 $4 $5 $6 $7 $8 $9 X,Y pos of 4 corners*
0 Add a 4 corners polygon primitive as box body*
4,1,4,$2,$3,$4,$5,$6,$7,$8,$9,$2,$3,0*
0 Add four circle primitives for the rounded corners*
1,1,$1+$1,$2,$3*
1,1,$1+$1,$4,$5*
1,1,$1+$1,$6,$7*
1,1,$1+$1,$8,$9*
0 Add four rect primitives between the rounded corners*
20,1,$1+$1,$2,$3,$4,$5,0*
20,1,$1+$1,$4,$5,$6,$7,0*
20,1,$1+$1,$6,$7,$8,$9,0*
20,1,$1+$1,$8,$9,$2,$3,0*%
G04 Aperture macros list end*
%TA.AperFunction,SMDPad,CuDef*%
%ADD10RoundRect,0.250000X0.262500X0.450000X-0.262500X0.450000X-0.262500X-0.450000X0.262500X-0.450000X0*%
%TD*%
%TA.AperFunction,SMDPad,CuDef*%
%ADD11RoundRect,0.250000X-0.450000X0.262500X-0.450000X-0.262500X0.450000X-0.262500X0.450000X0.262500X0*%
%TD*%
%TA.AperFunction,SMDPad,CuDef*%
%ADD12RoundRect,0.150000X-0.150000X0.825000X-0.150000X-0.825000X0.150000X-0.825000X0.150000X0.825000X0*%
%TD*%
%TA.AperFunction,SMDPad,CuDef*%
%ADD13RoundRect,0.150000X0.150000X-0.512500X0.150000X0.512500X-0.150000X0.512500X-0.150000X-0.512500X0*%
%TD*%
%TA.AperFunction,SMDPad,CuDef*%
%ADD14RoundRect,0.250000X0.250000X0.475000X-0.250000X0.475000X-0.250000X-0.475000X0.250000X-0.475000X0*%
%TD*%
%TA.AperFunction,SMDPad,CuDef*%
%ADD15RoundRect,0.250000X-0.250000X-0.475000X0.250000X-0.475000X0.250000X0.475000X-0.250000X0.475000X0*%
%TD*%
%TA.AperFunction,SMDPad,CuDef*%
%ADD16RoundRect,0.250000X-0.475000X0.250000X-0.475000X-0.250000X0.475000X-0.250000X0.475000X0.250000X0*%
%TD*%
%TA.AperFunction,ComponentPad*%
%ADD17R,1.700000X1.700000*%
%TD*%
%TA.AperFunction,ComponentPad*%
%ADD18O,1.700000X1.700000*%
%TD*%
%TA.AperFunction,SMDPad,CuDef*%
%ADD19RoundRect,0.125000X0.537500X0.125000X-0.537500X0.125000X-0.537500X-0.125000X0.537500X-0.125000X0*%
%TD*%
%TA.AperFunction,SMDPad,CuDef*%
%ADD20RoundRect,0.243750X-0.456250X0.243750X-0.456250X-0.243750X0.456250X-0.243750X0.456250X0.243750X0*%
%TD*%
%TA.AperFunction,SMDPad,CuDef*%
%ADD21RoundRect,0.250000X0.550000X-1.250000X0.550000X1.250000X-0.550000X1.250000X-0.550000X-1.250000X0*%
%TD*%
%TA.AperFunction,SMDPad,CuDef*%
%ADD22R,1.500000X2.200000*%
%TD*%
%TA.AperFunction,SMDPad,CuDef*%
%ADD23RoundRect,0.250000X-0.650000X0.325000X-0.650000X-0.325000X0.650000X-0.325000X0.650000X0.325000X0*%
%TD*%
%TA.AperFunction,SMDPad,CuDef*%
%ADD24RoundRect,0.100000X0.637500X0.100000X-0.637500X0.100000X-0.637500X-0.100000X0.637500X-0.100000X0*%
%TD*%
%TA.AperFunction,SMDPad,CuDef*%
%ADD25R,1.500000X2.000000*%
%TD*%
%TA.AperFunction,SMDPad,CuDef*%
%ADD26R,3.800000X2.000000*%
%TD*%
%TA.AperFunction,ComponentPad*%
%ADD27C,3.000000*%
%TD*%
%TA.AperFunction,SMDPad,CuDef*%
%ADD28R,0.675000X0.250000*%
%TD*%
%TA.AperFunction,SMDPad,CuDef*%
%ADD29R,0.250000X0.675000*%
%TD*%
%TA.AperFunction,SMDPad,CuDef*%
%ADD30RoundRect,0.250000X0.475000X-0.250000X0.475000X0.250000X-0.475000X0.250000X-0.475000X-0.250000X0*%
%TD*%
%TA.AperFunction,SMDPad,CuDef*%
%ADD31RoundRect,0.250000X0.450000X-0.262500X0.450000X0.262500X-0.450000X0.262500X-0.450000X-0.262500X0*%
%TD*%
%TA.AperFunction,SMDPad,CuDef*%
%ADD32RoundRect,0.250000X-0.262500X-0.450000X0.262500X-0.450000X0.262500X0.450000X-0.262500X0.450000X0*%
%TD*%
%TA.AperFunction,SMDPad,CuDef*%
%ADD33RoundRect,0.250000X-0.325000X-0.650000X0.325000X-0.650000X0.325000X0.650000X-0.325000X0.650000X0*%
%TD*%
%TA.AperFunction,SMDPad,CuDef*%
%ADD34R,1.500000X1.500000*%
%TD*%
%TA.AperFunction,SMDPad,CuDef*%
%ADD35RoundRect,0.150000X-0.512500X-0.150000X0.512500X-0.150000X0.512500X0.150000X-0.512500X0.150000X0*%
%TD*%
%TA.AperFunction,SMDPad,CuDef*%
%ADD36R,0.600000X1.150000*%
%TD*%
%TA.AperFunction,SMDPad,CuDef*%
%ADD37R,0.300000X1.150000*%
%TD*%
%TA.AperFunction,ComponentPad*%
%ADD38O,1.000000X2.100000*%
%TD*%
%TA.AperFunction,ComponentPad*%
%ADD39O,1.000000X1.800000*%
%TD*%
%TA.AperFunction,SMDPad,CuDef*%
%ADD40RoundRect,0.075000X-0.700000X-0.075000X0.700000X-0.075000X0.700000X0.075000X-0.700000X0.075000X0*%
%TD*%
%TA.AperFunction,SMDPad,CuDef*%
%ADD41RoundRect,0.075000X-0.075000X-0.700000X0.075000X-0.700000X0.075000X0.700000X-0.075000X0.700000X0*%
%TD*%
%TA.AperFunction,SMDPad,CuDef*%
%ADD42RoundRect,0.250000X-1.950000X-1.000000X1.950000X-1.000000X1.950000X1.000000X-1.950000X1.000000X0*%
%TD*%
%TA.AperFunction,SMDPad,CuDef*%
%ADD43R,0.500000X0.375000*%
%TD*%
%TA.AperFunction,SMDPad,CuDef*%
%ADD44R,0.650000X0.300000*%
%TD*%
%TA.AperFunction,SMDPad,CuDef*%
%ADD45R,2.000000X4.500000*%
%TD*%
%TA.AperFunction,Conductor*%
%ADD46C,0.200000*%
%TD*%
G04 APERTURE END LIST*
D10*
%TO.P,R22,1*%
%TO.N,GND*%
X193952500Y-111125000D03*
%TO.P,R22,2*%
%TO.N,Net-(J9-CC1)*%
X192127500Y-111125000D03*
%TD*%
D11*
%TO.P,R21,1*%
%TO.N,Net-(J8-Pin_2)*%
X127635000Y-112475000D03*
%TO.P,R21,2*%
%TO.N,Net-(J8-Pin_3)*%
X127635000Y-114300000D03*
%TD*%
D12*
%TO.P,U6,1,TXD*%
%TO.N,CANTx*%
X124460000Y-111190000D03*
%TO.P,U6,2,GND*%
%TO.N,GND*%
X123190000Y-111190000D03*
%TO.P,U6,3,VCC*%
%TO.N,+5V*%
X121920000Y-111190000D03*
%TO.P,U6,4,RXD*%
%TO.N,CANRx*%
X120650000Y-111190000D03*
%TO.P,U6,5,VIO*%
%TO.N,+3.3V*%
X120650000Y-116140000D03*
%TO.P,U6,6,CANL*%
%TO.N,Net-(J8-Pin_2)*%
X121920000Y-116140000D03*
%TO.P,U6,7,CANH*%
%TO.N,Net-(J8-Pin_3)*%
X123190000Y-116140000D03*
%TO.P,U6,8,S*%
%TO.N,GND*%
X124460000Y-116140000D03*
%TD*%
D10*
%TO.P,R28,1*%
%TO.N,Net-(U10-FB)*%
X137795000Y-81915000D03*
%TO.P,R28,2*%
%TO.N,Net-(R28-Pad2)*%
X135970000Y-81915000D03*
%TD*%
D13*
%TO.P,U5,1,NO*%
%TO.N,+5V*%
X178755000Y-91307500D03*
%TO.P,U5,2,GND*%
%TO.N,GND*%
X179705000Y-91307500D03*
%TO.P,U5,3,NC*%
%TO.N,+3.3V*%
X180655000Y-91307500D03*
%TO.P,U5,4,COM*%
%TO.N,Net-(U5-COM)*%
X180655000Y-89032500D03*
%TO.P,U5,5,V+*%
%TO.N,+5V*%
X179705000Y-89032500D03*
%TO.P,U5,6,IN*%
%TO.N,SENSOR_VOLTAGE_SELECT*%
X178755000Y-89032500D03*
%TD*%
D11*
%TO.P,R20,1*%
%TO.N,HALL3_IN*%
X168910000Y-115650000D03*
%TO.P,R20,2*%
%TO.N,Net-(J5-Pin_5)*%
X168910000Y-117475000D03*
%TD*%
D14*
%TO.P,C2,1*%
%TO.N,Net-(U1-PH0)*%
X142047000Y-92202000D03*
%TO.P,C2,2*%
%TO.N,GND*%
X140147000Y-92202000D03*
%TD*%
D15*
%TO.P,C6,1*%
%TO.N,+3.3V*%
X151450000Y-91440000D03*
%TO.P,C6,2*%
%TO.N,Net-(U1-VBAT)*%
X153350000Y-91440000D03*
%TD*%
D16*
%TO.P,C1,1*%
%TO.N,NRST*%
X130810000Y-105415000D03*
%TO.P,C1,2*%
%TO.N,GND*%
X130810000Y-107315000D03*
%TD*%
D17*
%TO.P,J7,1,Pin_1*%
%TO.N,+3.3V*%
X135890000Y-95890000D03*
D18*
%TO.P,J7,2,Pin_2*%
%TO.N,NRST*%
X135890000Y-98430000D03*
%TO.P,J7,3,Pin_3*%
%TO.N,SWCLK*%
X135890000Y-100970000D03*
%TO.P,J7,4,Pin_4*%
%TO.N,SWDIO*%
X135890000Y-103510000D03*
%TO.P,J7,5,Pin_5*%
%TO.N,GND*%
X135890000Y-106050000D03*
%TD*%
D14*
%TO.P,C8,1*%
%TO.N,+3.3V*%
X168656000Y-106680000D03*
%TO.P,C8,2*%
%TO.N,Net-(U1-VBAT)*%
X166756000Y-106680000D03*
%TD*%
D19*
%TO.P,U10,1,AMM*%
%TO.N,Net-(U10-AMM)*%
X156712500Y-80350000D03*
%TO.P,U10,2,VIN*%
%TO.N,Net-(U10-VIN)*%
X156712500Y-79700000D03*
%TO.P,U10,3,SW*%
%TO.N,Net-(U10-SW)*%
X156712500Y-79050000D03*
%TO.P,U10,4,GND*%
%TO.N,GND*%
X156712500Y-78400000D03*
%TO.P,U10,5,BOOT*%
%TO.N,Net-(U10-BOOT)*%
X154437500Y-78400000D03*
%TO.P,U10,6,EN*%
%TO.N,Net-(U10-EN)*%
X154437500Y-79050000D03*
%TO.P,U10,7,VCC*%
%TO.N,Net-(U10-VCC)*%
X154437500Y-79700000D03*
%TO.P,U10,8,FB*%
%TO.N,Net-(U10-FB)*%
X154437500Y-80350000D03*
%TD*%
D20*
%TO.P,D1,1,K*%
%TO.N,Net-(D1-K)*%
X136525000Y-113695000D03*
%TO.P,D1,2,A*%
%TO.N,LED_RUN*%
X136525000Y-115570000D03*
%TD*%
D21*
%TO.P,C33,1*%
%TO.N,+3.3V*%
X184150000Y-86655000D03*
%TO.P,C33,2*%
%TO.N,GND*%
X184150000Y-82255000D03*
%TD*%
D15*
%TO.P,C7,1*%
%TO.N,Net-(U1-VCAP_2)*%
X167772000Y-99060000D03*
%TO.P,C7,2*%
%TO.N,GND*%
X169672000Y-99060000D03*
%TD*%
D16*
%TO.P,C13,1*%
%TO.N,+3.3V*%
X156210000Y-90810000D03*
%TO.P,C13,2*%
%TO.N,Net-(U1-VBAT)*%
X156210000Y-92710000D03*
%TD*%
D22*
%TO.P,L1,1,1*%
%TO.N,Net-(U10-SW)*%
X166345000Y-74295000D03*
%TO.P,L1,2,2*%
%TO.N,+5V*%
X172745000Y-74295000D03*
%TD*%
D23*
%TO.P,C35,1*%
%TO.N,Net-(U10-VCC)*%
X160655000Y-80235000D03*
%TO.P,C35,2*%
%TO.N,GND*%
X160655000Y-83185000D03*
%TD*%
D10*
%TO.P,R14,1*%
%TO.N,GND*%
X155852500Y-116840000D03*
%TO.P,R14,2*%
%TO.N,SCK_ADC_EXT*%
X154027500Y-116840000D03*
%TD*%
D24*
%TO.P,U4,1,1OEn*%
%TO.N,HALL_FILTER_ENABLE*%
X178757500Y-102534000D03*
%TO.P,U4,2,1A*%
%TO.N,HALL1*%
X178757500Y-101884000D03*
%TO.P,U4,3,1B*%
%TO.N,Net-(U4-1B)*%
X178757500Y-101234000D03*
%TO.P,U4,4,2OEn*%
%TO.N,HALL_FILTER_ENABLE*%
X178757500Y-100584000D03*
%TO.P,U4,5,2A*%
%TO.N,HALL2*%
X178757500Y-99934000D03*
%TO.P,U4,6,2B*%
%TO.N,Net-(U4-2B)*%
X178757500Y-99284000D03*
%TO.P,U4,7,GND*%
%TO.N,GND*%
X178757500Y-98634000D03*
%TO.P,U4,8,3B*%
%TO.N,Net-(U4-3B)*%
X173032500Y-98634000D03*
%TO.P,U4,9,3A*%
%TO.N,HALL3*%
X173032500Y-99284000D03*
%TO.P,U4,10,3OEn*%
%TO.N,HALL_FILTER_ENABLE*%
X173032500Y-99934000D03*
%TO.P,U4,11,4B*%
%TO.N,GND*%
X173032500Y-100584000D03*
%TO.P,U4,12,4A*%
X173032500Y-101234000D03*
%TO.P,U4,13,4OEn*%
X173032500Y-101884000D03*
%TO.P,U4,14,VCC*%
%TO.N,+3.3V*%
X173032500Y-102534000D03*
%TD*%
D25*
%TO.P,U9,1,GND*%
%TO.N,GND*%
X168924000Y-81305000D03*
%TO.P,U9,2,VO*%
%TO.N,+3.3V*%
X166624000Y-81305000D03*
D26*
X166624000Y-87605000D03*
D25*
%TO.P,U9,3,VI*%
%TO.N,+5V*%
X164324000Y-81305000D03*
%TD*%
D27*
%TO.P,F1,1*%
%TO.N,+15V*%
X127815000Y-75565000D03*
%TO.P,F1,2*%
%TO.N,Net-(U10-VIN)*%
X150315000Y-75565000D03*
%TD*%
D21*
%TO.P,C32,1*%
%TO.N,+5V*%
X191135000Y-77130000D03*
%TO.P,C32,2*%
%TO.N,GND*%
X191135000Y-72730000D03*
%TD*%
%TO.P,C30,1*%
%TO.N,+5V*%
X175895000Y-86020000D03*
%TO.P,C30,2*%
%TO.N,GND*%
X175895000Y-81620000D03*
%TD*%
%TO.P,C28,1*%
%TO.N,Net-(U10-VIN)*%
X127635000Y-87290000D03*
%TO.P,C28,2*%
%TO.N,GND*%
X127635000Y-82890000D03*
%TD*%
D28*
%TO.P,U3,1,SDO*%
%TO.N,GND*%
X142890000Y-107450000D03*
%TO.P,U3,2,ASDx*%
%TO.N,unconnected-(U3-ASDx-Pad2)*%
X142890000Y-107950000D03*
%TO.P,U3,3,ASCx*%
%TO.N,unconnected-(U3-ASCx-Pad3)*%
X142890000Y-108450000D03*
%TO.P,U3,4,INT1*%
%TO.N,unconnected-(U3-INT1-Pad4)*%
X142890000Y-108950000D03*
D29*
%TO.P,U3,5,VDDIO*%
%TO.N,+3.3V*%
X143652500Y-109212500D03*
%TO.P,U3,6,GNDIO*%
%TO.N,GND*%
X144152500Y-109212500D03*
%TO.P,U3,7,GND*%
X144652500Y-109212500D03*
D28*
%TO.P,U3,8,VDD*%
%TO.N,+3.3V*%
X145415000Y-108950000D03*
%TO.P,U3,9,INT2*%
%TO.N,unconnected-(U3-INT2-Pad9)*%
X145415000Y-108450000D03*
%TO.P,U3,10,OCSB*%
%TO.N,unconnected-(U3-OCSB-Pad10)*%
X145415000Y-107950000D03*
%TO.P,U3,11,OSDO*%
%TO.N,unconnected-(U3-OSDO-Pad11)*%
X145415000Y-107450000D03*
D29*
%TO.P,U3,12,CSB*%
%TO.N,+3.3V*%
X144652500Y-107187500D03*
%TO.P,U3,13,SCx*%
%TO.N,IMU_SCL*%
X144152500Y-107187500D03*
%TO.P,U3,14,SDx*%
%TO.N,IMU_SDA*%
X143652500Y-107187500D03*
%TD*%
D30*
%TO.P,C19,1*%
%TO.N,Net-(U4-2B)*%
X176530000Y-96200000D03*
%TO.P,C19,2*%
%TO.N,GND*%
X176530000Y-94300000D03*
%TD*%
D15*
%TO.P,C25,1*%
%TO.N,TEMPMOTOR*%
X175392000Y-111252000D03*
%TO.P,C25,2*%
%TO.N,GND*%
X177292000Y-111252000D03*
%TD*%
D16*
%TO.P,C12,1*%
%TO.N,+3.3V*%
X158750000Y-90810000D03*
%TO.P,C12,2*%
%TO.N,Net-(U1-VBAT)*%
X158750000Y-92710000D03*
%TD*%
D31*
%TO.P,R7,1*%
%TO.N,HALL3*%
X182880000Y-97432500D03*
%TO.P,R7,2*%
%TO.N,HALL3_IN*%
X182880000Y-95607500D03*
%TD*%
D14*
%TO.P,C11,1*%
%TO.N,+3.3V*%
X169672000Y-95504000D03*
%TO.P,C11,2*%
%TO.N,Net-(U1-VBAT)*%
X167772000Y-95504000D03*
%TD*%
%TO.P,C10,1*%
%TO.N,+3.3V*%
X169672000Y-91948000D03*
%TO.P,C10,2*%
%TO.N,Net-(U1-VBAT)*%
X167772000Y-91948000D03*
%TD*%
D31*
%TO.P,R2,1*%
%TO.N,BOOT*%
X150495000Y-87272500D03*
%TO.P,R2,2*%
%TO.N,GND*%
X150495000Y-85447500D03*
%TD*%
D14*
%TO.P,C9,1*%
%TO.N,+3.3V*%
X168656000Y-104305000D03*
%TO.P,C9,2*%
%TO.N,Net-(U1-VBAT)*%
X166756000Y-104305000D03*
%TD*%
D11*
%TO.P,R30,1*%
%TO.N,Net-(R28-Pad2)*%
X133350000Y-82907500D03*
%TO.P,R30,2*%
%TO.N,+5V*%
X133350000Y-84732500D03*
%TD*%
D32*
%TO.P,R29,1*%
%TO.N,Net-(R28-Pad2)*%
X136247500Y-85725000D03*
%TO.P,R29,2*%
%TO.N,GND*%
X138072500Y-85725000D03*
%TD*%
D10*
%TO.P,R25,1*%
%TO.N,Net-(R25-Pad1)*%
X185062500Y-114300000D03*
%TO.P,R25,2*%
%TO.N,USBD-*%
X183237500Y-114300000D03*
%TD*%
D11*
%TO.P,R19,1*%
%TO.N,HALL2_IN*%
X171450000Y-115650000D03*
%TO.P,R19,2*%
%TO.N,Net-(J5-Pin_4)*%
X171450000Y-117475000D03*
%TD*%
D10*
%TO.P,R5,1*%
%TO.N,+3.3V*%
X142541000Y-104775000D03*
%TO.P,R5,2*%
%TO.N,IMU_SDA*%
X140716000Y-104775000D03*
%TD*%
D16*
%TO.P,C22,1*%
%TO.N,+5V*%
X173990000Y-89855000D03*
%TO.P,C22,2*%
%TO.N,GND*%
X173990000Y-91755000D03*
%TD*%
D32*
%TO.P,R24,1*%
%TO.N,Net-(R24-Pad1)*%
X183237500Y-111760000D03*
%TO.P,R24,2*%
%TO.N,USBD+*%
X185062500Y-111760000D03*
%TD*%
D11*
%TO.P,R16,1*%
%TO.N,+3.3V*%
X171196000Y-109855000D03*
%TO.P,R16,2*%
%TO.N,TEMPMOTOR_IN*%
X171196000Y-111680000D03*
%TD*%
D15*
%TO.P,C5,1*%
%TO.N,+3.3V*%
X151770000Y-93980000D03*
%TO.P,C5,2*%
%TO.N,Net-(U1-VBAT)*%
X153670000Y-93980000D03*
%TD*%
D31*
%TO.P,R4,1*%
%TO.N,Net-(D2-K)*%
X133223000Y-111481000D03*
%TO.P,R4,2*%
%TO.N,GND*%
X133223000Y-109656000D03*
%TD*%
D15*
%TO.P,C3,1*%
%TO.N,GND*%
X140147000Y-100711000D03*
%TO.P,C3,2*%
%TO.N,Net-(U1-PH1)*%
X142047000Y-100711000D03*
%TD*%
D11*
%TO.P,R10,1*%
%TO.N,Net-(U5-COM)*%
X185420000Y-93702500D03*
%TO.P,R10,2*%
%TO.N,HALL3_IN*%
X185420000Y-95527500D03*
%TD*%
D33*
%TO.P,C29,1*%
%TO.N,Net-(U10-BOOT)*%
X157705000Y-74295000D03*
%TO.P,C29,2*%
%TO.N,Net-(U10-SW)*%
X160655000Y-74295000D03*
%TD*%
D15*
%TO.P,C27,1*%
%TO.N,+5V*%
X121478000Y-107950000D03*
%TO.P,C27,2*%
%TO.N,GND*%
X123378000Y-107950000D03*
%TD*%
D30*
%TO.P,C14,1*%
%TO.N,+5V*%
X132080000Y-91120000D03*
%TO.P,C14,2*%
%TO.N,GND*%
X132080000Y-89220000D03*
%TD*%
D34*
%TO.P,SW1,1,1*%
%TO.N,+3.3V*%
X160745000Y-86995000D03*
%TO.P,SW1,2,2*%
%TO.N,BOOT*%
X152945000Y-86995000D03*
%TD*%
D35*
%TO.P,U2,1,VBIAS*%
%TO.N,VBIAS*%
X135890000Y-89535000D03*
%TO.P,U2,2,GND*%
%TO.N,GND*%
X135890000Y-90485000D03*
%TO.P,U2,3,EN*%
%TO.N,+5V*%
X135890000Y-91435000D03*
%TO.P,U2,4,VIN*%
X138165000Y-91435000D03*
%TO.P,U2,5,VREF*%
%TO.N,VREF*%
X138165000Y-89535000D03*
%TD*%
D15*
%TO.P,C17,1*%
%TO.N,+3.3V*%
X142880000Y-114300000D03*
%TO.P,C17,2*%
%TO.N,GND*%
X144780000Y-114300000D03*
%TD*%
D31*
%TO.P,R3,1*%
%TO.N,Net-(D1-K)*%
X136525000Y-111504500D03*
%TO.P,R3,2*%
%TO.N,GND*%
X136525000Y-109679500D03*
%TD*%
D36*
%TO.P,J9,A1,GND*%
%TO.N,GND*%
X186030000Y-117605000D03*
%TO.P,J9,A4,VBUS*%
%TO.N,Net-(U7-VBUS)*%
X186830000Y-117605000D03*
D37*
%TO.P,J9,A5,CC1*%
%TO.N,Net-(J9-CC1)*%
X187980000Y-117605000D03*
%TO.P,J9,A6,D+*%
%TO.N,Net-(J9-D+-PadA6)*%
X188980000Y-117605000D03*
%TO.P,J9,A7,D-*%
%TO.N,Net-(J9-D--PadA7)*%
X189480000Y-117605000D03*
%TO.P,J9,A8,SBU1*%
%TO.N,unconnected-(J9-SBU1-PadA8)*%
X190480000Y-117605000D03*
D36*
%TO.P,J9,A9,VBUS*%
%TO.N,Net-(U7-VBUS)*%
X191630000Y-117605000D03*
%TO.P,J9,A12,GND*%
%TO.N,GND*%
X192430000Y-117605000D03*
%TO.P,J9,B1,GND*%
X192430000Y-117605000D03*
%TO.P,J9,B4,VBUS*%
%TO.N,Net-(U7-VBUS)*%
X191630000Y-117605000D03*
D37*
%TO.P,J9,B5,CC2*%
%TO.N,Net-(J9-CC2)*%
X190980000Y-117605000D03*
%TO.P,J9,B6,D+*%
%TO.N,Net-(J9-D+-PadA6)*%
X189980000Y-117605000D03*
%TO.P,J9,B7,D-*%
%TO.N,Net-(J9-D--PadA7)*%
X188480000Y-117605000D03*
%TO.P,J9,B8,SBU2*%
%TO.N,unconnected-(J9-SBU2-PadB8)*%
X187480000Y-117605000D03*
D36*
%TO.P,J9,B9,VBUS*%
%TO.N,Net-(U7-VBUS)*%
X186830000Y-117605000D03*
%TO.P,J9,B12,GND*%
%TO.N,GND*%
X186030000Y-117605000D03*
D38*
%TO.P,J9,S1,SHIELD*%
X184910000Y-118180000D03*
D39*
X184910000Y-122360000D03*
D38*
X193550000Y-118180000D03*
D39*
X193550000Y-122360000D03*
%TD*%
D17*
%TO.P,J3,1,Pin_1*%
%TO.N,+3.3V*%
X138420000Y-120650000D03*
D18*
%TO.P,J3,2,Pin_2*%
%TO.N,TX_EXT2*%
X135880000Y-120650000D03*
%TO.P,J3,3,Pin_3*%
%TO.N,RX_EXT2*%
X133340000Y-120650000D03*
%TO.P,J3,4,Pin_4*%
%TO.N,GND*%
X130800000Y-120650000D03*
%TD*%
D32*
%TO.P,R13,1*%
%TO.N,Net-(J1-Pin_3)*%
X158195000Y-116840000D03*
%TO.P,R13,2*%
%TO.N,SERVO*%
X160020000Y-116840000D03*
%TD*%
D11*
%TO.P,R18,1*%
%TO.N,HALL1_IN*%
X173990000Y-115570000D03*
%TO.P,R18,2*%
%TO.N,Net-(J5-Pin_3)*%
X173990000Y-117395000D03*
%TD*%
D30*
%TO.P,C15,1*%
%TO.N,VREF*%
X141605000Y-86995000D03*
%TO.P,C15,2*%
%TO.N,GND*%
X141605000Y-85095000D03*
%TD*%
D31*
%TO.P,R9,1*%
%TO.N,HALL1*%
X182880000Y-105687500D03*
%TO.P,R9,2*%
%TO.N,HALL1_IN*%
X182880000Y-103862500D03*
%TD*%
D15*
%TO.P,C16,1*%
%TO.N,+3.3V*%
X142880000Y-111760000D03*
%TO.P,C16,2*%
%TO.N,GND*%
X144780000Y-111760000D03*
%TD*%
D31*
%TO.P,R27,1*%
%TO.N,Net-(U10-VIN)*%
X154940000Y-75485000D03*
%TO.P,R27,2*%
%TO.N,Net-(U10-EN)*%
X154940000Y-73660000D03*
%TD*%
D40*
%TO.P,U1,1,VBAT*%
%TO.N,Net-(U1-VBAT)*%
X151170000Y-98485000D03*
%TO.P,U1,2,PC13*%
%TO.N,P_FILTER2*%
X151170000Y-98985000D03*
%TO.P,U1,3,PC14*%
%TO.N,P_FILTER3*%
X151170000Y-99485000D03*
%TO.P,U1,4,PC15*%
%TO.N,CLEAR_HW_FAULT*%
X151170000Y-99985000D03*
%TO.P,U1,5,PH0*%
%TO.N,Net-(U1-PH0)*%
X151170000Y-100485000D03*
%TO.P,U1,6,PH1*%
%TO.N,Net-(U1-PH1)*%
X151170000Y-100985000D03*
%TO.P,U1,7,NRST*%
%TO.N,NRST*%
X151170000Y-101485000D03*
%TO.P,U1,8,PC0*%
%TO.N,CUR1*%
X151170000Y-101985000D03*
%TO.P,U1,9,PC1*%
%TO.N,CUR2*%
X151170000Y-102485000D03*
%TO.P,U1,10,PC2*%
%TO.N,CUR3*%
X151170000Y-102985000D03*
%TO.P,U1,11,PC3*%
%TO.N,IN_V*%
X151170000Y-103485000D03*
%TO.P,U1,12,VSSA*%
%TO.N,GND*%
X151170000Y-103985000D03*
%TO.P,U1,13,VDDA*%
%TO.N,VREF*%
X151170000Y-104485000D03*
%TO.P,U1,14,PA0*%
%TO.N,VSENSE3*%
X151170000Y-104985000D03*
%TO.P,U1,15,PA1*%
%TO.N,VSENSE2*%
X151170000Y-105485000D03*
%TO.P,U1,16,PA2*%
%TO.N,VSENSE1*%
X151170000Y-105985000D03*
D41*
%TO.P,U1,17,PA3*%
%TO.N,MOSTEMP1*%
X153095000Y-107910000D03*
%TO.P,U1,18,VSS*%
%TO.N,GND*%
X153595000Y-107910000D03*
%TO.P,U1,19,VDD*%
%TO.N,Net-(U1-VBAT)*%
X154095000Y-107910000D03*
%TO.P,U1,20,PA4*%
%TO.N,CURR_TRIP_HIGH*%
X154595000Y-107910000D03*
%TO.P,U1,21,PA5*%
%TO.N,CURR_TRIP_LOW*%
X155095000Y-107910000D03*
%TO.P,U1,22,PA6*%
%TO.N,MISO_ADC_EXT2*%
X155595000Y-107910000D03*
%TO.P,U1,23,PA7*%
%TO.N,TX_SCL_MOSI*%
X156095000Y-107910000D03*
%TO.P,U1,24,PC4*%
%TO.N,TEMPMOTOR*%
X156595000Y-107910000D03*
%TO.P,U1,25,PC5*%
%TO.N,SCK_ADC_EXT*%
X157095000Y-107910000D03*
%TO.P,U1,26,PB0*%
%TO.N,MOSTEMP2*%
X157595000Y-107910000D03*
%TO.P,U1,27,PB1*%
%TO.N,MOSTEMP3*%
X158095000Y-107910000D03*
%TO.P,U1,28,PB2*%
%TO.N,LED_RUN*%
X158595000Y-107910000D03*
%TO.P,U1,29,PB10*%
%TO.N,IMU_SCL*%
X159095000Y-107910000D03*
%TO.P,U1,30,PB11*%
%TO.N,IMU_SDA*%
X159595000Y-107910000D03*
%TO.P,U1,31,VCAP_1*%
%TO.N,Net-(U1-VCAP_1)*%
X160095000Y-107910000D03*
%TO.P,U1,32,VDD*%
%TO.N,Net-(U1-VBAT)*%
X160595000Y-107910000D03*
D40*
%TO.P,U1,33,PB12*%
%TO.N,POWER_STAGE_LOCKOUT*%
X162520000Y-105985000D03*
%TO.P,U1,34,PB13*%
%TO.N,L3*%
X162520000Y-105485000D03*
%TO.P,U1,35,PB14*%
%TO.N,L2*%
X162520000Y-104985000D03*
%TO.P,U1,36,PB15*%
%TO.N,L1*%
X162520000Y-104485000D03*
%TO.P,U1,37,PC6*%
%TO.N,HALL1*%
X162520000Y-103985000D03*
%TO.P,U1,38,PC7*%
%TO.N,HALL2*%
X162520000Y-103485000D03*
%TO.P,U1,39,PC8*%
%TO.N,HALL3*%
X162520000Y-102985000D03*
%TO.P,U1,40,PC9*%
%TO.N,P_FILTER1*%
X162520000Y-102485000D03*
%TO.P,U1,41,PA8*%
%TO.N,H3*%
X162520000Y-101985000D03*
%TO.P,U1,42,PA9*%
%TO.N,H2*%
X162520000Y-101485000D03*
%TO.P,U1,43,PA10*%
%TO.N,H1*%
X162520000Y-100985000D03*
%TO.P,U1,44,PA11*%
%TO.N,USBD-*%
X162520000Y-100485000D03*
%TO.P,U1,45,PA12*%
%TO.N,USBD+*%
X162520000Y-99985000D03*
%TO.P,U1,46,PA13*%
%TO.N,SWDIO*%
X162520000Y-99485000D03*
%TO.P,U1,47,VCAP_2*%
%TO.N,Net-(U1-VCAP_2)*%
X162520000Y-98985000D03*
%TO.P,U1,48,VDD*%
%TO.N,Net-(U1-VBAT)*%
X162520000Y-98485000D03*
D41*
%TO.P,U1,49,PA14*%
%TO.N,SWCLK*%
X160595000Y-96560000D03*
%TO.P,U1,50,PA15*%
%TO.N,RX_SDA_NSS*%
X160095000Y-96560000D03*
%TO.P,U1,51,PC10*%
%TO.N,TX_EXT2*%
X159595000Y-96560000D03*
%TO.P,U1,52,PC11*%
%TO.N,RX_EXT2*%
X159095000Y-96560000D03*
%TO.P,U1,53,PC12*%
%TO.N,unconnected-(U1-PC12-Pad53)*%
X158595000Y-96560000D03*
%TO.P,U1,54,PD2*%
%TO.N,LED_FAULT*%
X158095000Y-96560000D03*
%TO.P,U1,55,PB3*%
%TO.N,SCK_ADC_EXT*%
X157595000Y-96560000D03*
%TO.P,U1,56,PB4*%
%TO.N,SENSOR_VOLTAGE_SELECT*%
X157095000Y-96560000D03*
%TO.P,U1,57,PB5*%
%TO.N,POWER_STAGE_DISABLE*%
X156595000Y-96560000D03*
%TO.P,U1,58,PB6*%
%TO.N,SERVO*%
X156095000Y-96560000D03*
%TO.P,U1,59,PB7*%
%TO.N,HALL_FILTER_ENABLE*%
X155595000Y-96560000D03*
%TO.P,U1,60,BOOT0*%
%TO.N,BOOT*%
X155095000Y-96560000D03*
%TO.P,U1,61,PB8*%
%TO.N,CANRx*%
X154595000Y-96560000D03*
%TO.P,U1,62,PB9*%
%TO.N,CANTx*%
X154095000Y-96560000D03*
%TO.P,U1,63,VSS*%
%TO.N,GND*%
X153595000Y-96560000D03*
%TO.P,U1,64,VDD*%
%TO.N,Net-(U1-VBAT)*%
X153095000Y-96560000D03*
%TD*%
D42*
%TO.P,C34,1*%
%TO.N,+3.3V*%
X176640000Y-74930000D03*
%TO.P,C34,2*%
%TO.N,GND*%
X184040000Y-74930000D03*
%TD*%
D16*
%TO.P,C4,1*%
%TO.N,Net-(U1-VCAP_1)*%
X163195000Y-109540000D03*
%TO.P,C4,2*%
%TO.N,GND*%
X163195000Y-111440000D03*
%TD*%
D17*
%TO.P,J1,1,Pin_1*%
%TO.N,+5V*%
X161275000Y-120650000D03*
D18*
%TO.P,J1,2,Pin_2*%
%TO.N,+3.3V*%
X158735000Y-120650000D03*
%TO.P,J1,3,Pin_3*%
%TO.N,Net-(J1-Pin_3)*%
X156195000Y-120650000D03*
%TO.P,J1,4,Pin_4*%
%TO.N,SCK_ADC_EXT*%
X153655000Y-120650000D03*
%TO.P,J1,5,Pin_5*%
%TO.N,MISO_ADC_EXT2*%
X151115000Y-120650000D03*
%TO.P,J1,6,Pin_6*%
%TO.N,TX_SCL_MOSI*%
X148575000Y-120650000D03*
%TO.P,J1,7,Pin_7*%
%TO.N,RX_SDA_NSS*%
X146035000Y-120650000D03*
%TO.P,J1,8,Pin_8*%
%TO.N,GND*%
X143495000Y-120650000D03*
%TD*%
D34*
%TO.P,SW2,1,1*%
%TO.N,NRST*%
X130175000Y-102325000D03*
%TO.P,SW2,2,2*%
%TO.N,GND*%
X130175000Y-94525000D03*
%TD*%
D14*
%TO.P,C23,1*%
%TO.N,SERVO*%
X157795000Y-111760000D03*
%TO.P,C23,2*%
%TO.N,GND*%
X155895000Y-111760000D03*
%TD*%
D32*
%TO.P,R15,1*%
%TO.N,GND*%
X149305000Y-116840000D03*
%TO.P,R15,2*%
%TO.N,MISO_ADC_EXT2*%
X151130000Y-116840000D03*
%TD*%
D15*
%TO.P,C21,1*%
%TO.N,+3.3V*%
X175900000Y-107188000D03*
%TO.P,C21,2*%
%TO.N,GND*%
X177800000Y-107188000D03*
%TD*%
D17*
%TO.P,J5,1,Pin_1*%
%TO.N,+5V*%
X179070000Y-120650000D03*
D18*
%TO.P,J5,2,Pin_2*%
%TO.N,TEMPMOTOR_IN*%
X176530000Y-120650000D03*
%TO.P,J5,3,Pin_3*%
%TO.N,Net-(J5-Pin_3)*%
X173990000Y-120650000D03*
%TO.P,J5,4,Pin_4*%
%TO.N,Net-(J5-Pin_4)*%
X171450000Y-120650000D03*
%TO.P,J5,5,Pin_5*%
%TO.N,Net-(J5-Pin_5)*%
X168910000Y-120650000D03*
%TO.P,J5,6,Pin_6*%
%TO.N,GND*%
X166370000Y-120650000D03*
%TD*%
D11*
%TO.P,R11,1*%
%TO.N,Net-(U5-COM)*%
X185420000Y-98147500D03*
%TO.P,R11,2*%
%TO.N,HALL2_IN*%
X185420000Y-99972500D03*
%TD*%
D10*
%TO.P,R6,1*%
%TO.N,+3.3V*%
X148637000Y-104648000D03*
%TO.P,R6,2*%
%TO.N,IMU_SCL*%
X146812000Y-104648000D03*
%TD*%
D17*
%TO.P,J8,1,Pin_1*%
%TO.N,GND*%
X125730000Y-120650000D03*
D18*
%TO.P,J8,2,Pin_2*%
%TO.N,Net-(J8-Pin_2)*%
X123190000Y-120650000D03*
%TO.P,J8,3,Pin_3*%
%TO.N,Net-(J8-Pin_3)*%
X120650000Y-120650000D03*
%TO.P,J8,4,Pin_4*%
%TO.N,+5V*%
X118110000Y-120650000D03*
%TD*%
D15*
%TO.P,C26,1*%
%TO.N,+5V*%
X121544000Y-104140000D03*
%TO.P,C26,2*%
%TO.N,GND*%
X123444000Y-104140000D03*
%TD*%
D11*
%TO.P,R26,1*%
%TO.N,Net-(U10-AMM)*%
X145415000Y-84812500D03*
%TO.P,R26,2*%
%TO.N,GND*%
X145415000Y-86637500D03*
%TD*%
D31*
%TO.P,R1,1*%
%TO.N,+3.3V*%
X128270000Y-107235000D03*
%TO.P,R1,2*%
%TO.N,NRST*%
X128270000Y-105410000D03*
%TD*%
D43*
%TO.P,U7,1,I/O1*%
%TO.N,Net-(R24-Pad1)*%
X188380000Y-113762500D03*
D44*
%TO.P,U7,2,GND*%
%TO.N,GND*%
X188305000Y-114300000D03*
D43*
%TO.P,U7,3,I/O2*%
%TO.N,Net-(R25-Pad1)*%
X188380000Y-114837500D03*
%TO.P,U7,4,I/O2*%
%TO.N,Net-(J9-D--PadA7)*%
X190080000Y-114837500D03*
D44*
%TO.P,U7,5,VBUS*%
%TO.N,Net-(U7-VBUS)*%
X190155000Y-114300000D03*
D43*
%TO.P,U7,6,I/O1*%
%TO.N,Net-(J9-D+-PadA6)*%
X190080000Y-113762500D03*
%TD*%
D11*
%TO.P,R12,1*%
%TO.N,Net-(U5-COM)*%
X185420000Y-102315000D03*
%TO.P,R12,2*%
%TO.N,HALL1_IN*%
X185420000Y-104140000D03*
%TD*%
D20*
%TO.P,D2,1,K*%
%TO.N,Net-(D2-K)*%
X133223000Y-113695000D03*
%TO.P,D2,2,A*%
%TO.N,LED_FAULT*%
X133223000Y-115570000D03*
%TD*%
D45*
%TO.P,Y1,1,1*%
%TO.N,Net-(U1-PH1)*%
X146050000Y-100702000D03*
%TO.P,Y1,2,2*%
%TO.N,Net-(U1-PH0)*%
X146050000Y-92202000D03*
%TD*%
D30*
%TO.P,C24,1*%
%TO.N,+3.3V*%
X118110000Y-114295000D03*
%TO.P,C24,2*%
%TO.N,GND*%
X118110000Y-112395000D03*
%TD*%
%TO.P,C18,1*%
%TO.N,Net-(U4-1B)*%
X179705000Y-96200000D03*
%TO.P,C18,2*%
%TO.N,GND*%
X179705000Y-94300000D03*
%TD*%
D31*
%TO.P,R8,1*%
%TO.N,HALL2*%
X182880000Y-101877500D03*
%TO.P,R8,2*%
%TO.N,HALL2_IN*%
X182880000Y-100052500D03*
%TD*%
%TO.P,R17,1*%
%TO.N,TEMPMOTOR_IN*%
X176530000Y-117395000D03*
%TO.P,R17,2*%
%TO.N,TEMPMOTOR*%
X176530000Y-115570000D03*
%TD*%
D30*
%TO.P,C20,1*%
%TO.N,Net-(U4-3B)*%
X173355000Y-96200000D03*
%TO.P,C20,2*%
%TO.N,GND*%
X173355000Y-94300000D03*
%TD*%
D10*
%TO.P,R23,1*%
%TO.N,GND*%
X193952500Y-114300000D03*
%TO.P,R23,2*%
%TO.N,Net-(J9-CC2)*%
X192127500Y-114300000D03*
%TD*%
D17*
%TO.P,J6,1,Pin_1*%
%TO.N,+15V*%
X121000000Y-77000000D03*
D18*
%TO.P,J6,2,Pin_2*%
%TO.N,VSENSE1*%
X118460000Y-77000000D03*
%TO.P,J6,3,Pin_3*%
%TO.N,VSENSE2*%
X121000000Y-79540000D03*
%TO.P,J6,4,Pin_4*%
%TO.N,VSENSE3*%
X118460000Y-79540000D03*
%TO.P,J6,5,Pin_5*%
%TO.N,L1*%
X121000000Y-82080000D03*
%TO.P,J6,6,Pin_6*%
%TO.N,L2*%
X118460000Y-82080000D03*
%TO.P,J6,7,Pin_7*%
%TO.N,L3*%
X121000000Y-84620000D03*
%TO.P,J6,8,Pin_8*%
%TO.N,H1*%
X118460000Y-84620000D03*
%TO.P,J6,9,Pin_9*%
%TO.N,H2*%
X121000000Y-87160000D03*
%TO.P,J6,10,Pin_10*%
%TO.N,H3*%
X118460000Y-87160000D03*
%TO.P,J6,11,Pin_11*%
%TO.N,GND*%
X121000000Y-89700000D03*
%TO.P,J6,12,Pin_12*%
%TO.N,CURR_TRIP_LOW*%
X118460000Y-89700000D03*
%TO.P,J6,13,Pin_13*%
%TO.N,CURR_TRIP_HIGH*%
X121000000Y-92240000D03*
%TO.P,J6,14,Pin_14*%
%TO.N,MOSTEMP3*%
X118460000Y-92240000D03*
%TO.P,J6,15,Pin_15*%
%TO.N,MOSTEMP2*%
X121000000Y-94780000D03*
%TO.P,J6,16,Pin_16*%
%TO.N,MOSTEMP1*%
X118460000Y-94780000D03*
%TO.P,J6,17,Pin_17*%
%TO.N,CUR3*%
X121000000Y-97320000D03*
%TO.P,J6,18,Pin_18*%
%TO.N,CUR2*%
X118460000Y-97320000D03*
%TO.P,J6,19,Pin_19*%
%TO.N,CUR1*%
X121000000Y-99860000D03*
%TO.P,J6,20,Pin_20*%
%TO.N,+3.3V*%
X118460000Y-99860000D03*
%TD*%
D17*
%TO.P,J2,1,Pin_1*%
%TO.N,+5V*%
X193000000Y-83000000D03*
D18*
%TO.P,J2,2,Pin_2*%
%TO.N,IN_V*%
X190460000Y-83000000D03*
%TO.P,J2,3,Pin_3*%
%TO.N,VBIAS*%
X193000000Y-85540000D03*
%TO.P,J2,4,Pin_4*%
%TO.N,P_FILTER1*%
X190460000Y-85540000D03*
%TO.P,J2,5,Pin_5*%
%TO.N,P_FILTER2*%
X193000000Y-88080000D03*
%TO.P,J2,6,Pin_6*%
%TO.N,P_FILTER3*%
X190460000Y-88080000D03*
%TO.P,J2,7,Pin_7*%
%TO.N,GND*%
X193000000Y-90620000D03*
%TO.P,J2,8,Pin_8*%
X190460000Y-90620000D03*
%TO.P,J2,9,Pin_9*%
%TO.N,CLEAR_HW_FAULT*%
X193000000Y-93160000D03*
%TO.P,J2,10,Pin_10*%
%TO.N,POWER_STAGE_LOCKOUT*%
X190460000Y-93160000D03*
%TO.P,J2,11,Pin_11*%
%TO.N,POWER_STAGE_DISABLE*%
X193000000Y-95700000D03*
%TO.P,J2,12,Pin_12*%
%TO.N,+3.3V*%
X190460000Y-95700000D03*
%TD*%
D46*
%TO.N,Net-(J1-Pin_3)*%
X156195000Y-120650000D02*
X158195000Y-118650000D01*
X158195000Y-118650000D02*
X158195000Y-116840000D01*
%TO.N,SCK_ADC_EXT*%
X153655000Y-120650000D02*
X153655000Y-117212500D01*
X153655000Y-117212500D02*
X154027500Y-116840000D01*
%TO.N,MISO_ADC_EXT2*%
X151115000Y-120650000D02*
X151115000Y-116855000D01*
X151115000Y-116855000D02*
X151130000Y-116840000D01*
%TO.N,Net-(J5-Pin_3)*%
X173990000Y-120650000D02*
X173990000Y-117395000D01*
%TO.N,Net-(J5-Pin_4)*%
X171450000Y-120650000D02*
X171450000Y-117475000D01*
%TO.N,Net-(J5-Pin_5)*%
X168910000Y-120650000D02*
X168910000Y-117475000D01*
%TD*%
M02*
