%TF.GenerationSoftware,KiCad,Pcbnew,7.0.5*%
%TF.CreationDate,2023-06-26T01:29:26+02:00*%
%TF.ProjectId,GigaVesc,47696761-5665-4736-932e-6b696361645f,rev?*%
%TF.SameCoordinates,Original*%
%TF.FileFunction,Paste,Top*%
%TF.FilePolarity,Positive*%
%FSLAX46Y46*%
G04 Gerber Fmt 4.6, Leading zero omitted, Abs format (unit mm)*
G04 Created by KiCad (PCBNEW 7.0.5) date 2023-06-26 01:29:26*
%MOMM*%
%LPD*%
G01*
G04 APERTURE LIST*
G04 Aperture macros list*
%AMRoundRect*
0 Rectangle with rounded corners*
0 $1 Rounding radius*
0 $2 $3 $4 $5 $6 $7 $8 $9 X,Y pos of 4 corners*
0 Add a 4 corners polygon primitive as box body*
4,1,4,$2,$3,$4,$5,$6,$7,$8,$9,$2,$3,0*
0 Add four circle primitives for the rounded corners*
1,1,$1+$1,$2,$3*
1,1,$1+$1,$4,$5*
1,1,$1+$1,$6,$7*
1,1,$1+$1,$8,$9*
0 Add four rect primitives between the rounded corners*
20,1,$1+$1,$2,$3,$4,$5,0*
20,1,$1+$1,$4,$5,$6,$7,0*
20,1,$1+$1,$6,$7,$8,$9,0*
20,1,$1+$1,$8,$9,$2,$3,0*%
G04 Aperture macros list end*
%ADD10RoundRect,0.250000X0.262500X0.450000X-0.262500X0.450000X-0.262500X-0.450000X0.262500X-0.450000X0*%
%ADD11RoundRect,0.250000X-0.450000X0.262500X-0.450000X-0.262500X0.450000X-0.262500X0.450000X0.262500X0*%
%ADD12RoundRect,0.150000X-0.150000X0.825000X-0.150000X-0.825000X0.150000X-0.825000X0.150000X0.825000X0*%
%ADD13RoundRect,0.150000X0.150000X-0.512500X0.150000X0.512500X-0.150000X0.512500X-0.150000X-0.512500X0*%
%ADD14RoundRect,0.250000X0.250000X0.475000X-0.250000X0.475000X-0.250000X-0.475000X0.250000X-0.475000X0*%
%ADD15RoundRect,0.250000X-0.250000X-0.475000X0.250000X-0.475000X0.250000X0.475000X-0.250000X0.475000X0*%
%ADD16RoundRect,0.250000X-0.475000X0.250000X-0.475000X-0.250000X0.475000X-0.250000X0.475000X0.250000X0*%
%ADD17RoundRect,0.125000X0.537500X0.125000X-0.537500X0.125000X-0.537500X-0.125000X0.537500X-0.125000X0*%
%ADD18RoundRect,0.243750X-0.456250X0.243750X-0.456250X-0.243750X0.456250X-0.243750X0.456250X0.243750X0*%
%ADD19RoundRect,0.250000X0.550000X-1.250000X0.550000X1.250000X-0.550000X1.250000X-0.550000X-1.250000X0*%
%ADD20R,1.500000X2.200000*%
%ADD21RoundRect,0.250000X-0.650000X0.325000X-0.650000X-0.325000X0.650000X-0.325000X0.650000X0.325000X0*%
%ADD22RoundRect,0.100000X0.637500X0.100000X-0.637500X0.100000X-0.637500X-0.100000X0.637500X-0.100000X0*%
%ADD23R,1.500000X2.000000*%
%ADD24R,3.800000X2.000000*%
%ADD25R,0.675000X0.250000*%
%ADD26R,0.250000X0.675000*%
%ADD27RoundRect,0.250000X0.475000X-0.250000X0.475000X0.250000X-0.475000X0.250000X-0.475000X-0.250000X0*%
%ADD28RoundRect,0.250000X0.450000X-0.262500X0.450000X0.262500X-0.450000X0.262500X-0.450000X-0.262500X0*%
%ADD29RoundRect,0.250000X-0.262500X-0.450000X0.262500X-0.450000X0.262500X0.450000X-0.262500X0.450000X0*%
%ADD30RoundRect,0.250000X-0.325000X-0.650000X0.325000X-0.650000X0.325000X0.650000X-0.325000X0.650000X0*%
%ADD31R,1.500000X1.500000*%
%ADD32RoundRect,0.150000X-0.512500X-0.150000X0.512500X-0.150000X0.512500X0.150000X-0.512500X0.150000X0*%
%ADD33R,0.600000X1.150000*%
%ADD34R,0.300000X1.150000*%
%ADD35O,1.000000X2.100000*%
%ADD36O,1.000000X1.800000*%
%ADD37RoundRect,0.075000X-0.700000X-0.075000X0.700000X-0.075000X0.700000X0.075000X-0.700000X0.075000X0*%
%ADD38RoundRect,0.075000X-0.075000X-0.700000X0.075000X-0.700000X0.075000X0.700000X-0.075000X0.700000X0*%
%ADD39RoundRect,0.250000X-1.950000X-1.000000X1.950000X-1.000000X1.950000X1.000000X-1.950000X1.000000X0*%
%ADD40R,0.500000X0.375000*%
%ADD41R,0.650000X0.300000*%
%ADD42R,2.000000X4.500000*%
G04 APERTURE END LIST*
D10*
%TO.C,R22*%
X193952500Y-111125000D03*
X192127500Y-111125000D03*
%TD*%
D11*
%TO.C,R21*%
X127635000Y-112475000D03*
X127635000Y-114300000D03*
%TD*%
D12*
%TO.C,U6*%
X124460000Y-111190000D03*
X123190000Y-111190000D03*
X121920000Y-111190000D03*
X120650000Y-111190000D03*
X120650000Y-116140000D03*
X121920000Y-116140000D03*
X123190000Y-116140000D03*
X124460000Y-116140000D03*
%TD*%
D10*
%TO.C,R28*%
X137795000Y-81915000D03*
X135970000Y-81915000D03*
%TD*%
D13*
%TO.C,U5*%
X178755000Y-91307500D03*
X179705000Y-91307500D03*
X180655000Y-91307500D03*
X180655000Y-89032500D03*
X179705000Y-89032500D03*
X178755000Y-89032500D03*
%TD*%
D11*
%TO.C,R20*%
X168910000Y-115650000D03*
X168910000Y-117475000D03*
%TD*%
D14*
%TO.C,C2*%
X142047000Y-92202000D03*
X140147000Y-92202000D03*
%TD*%
D15*
%TO.C,C6*%
X151450000Y-91440000D03*
X153350000Y-91440000D03*
%TD*%
D16*
%TO.C,C1*%
X130810000Y-105415000D03*
X130810000Y-107315000D03*
%TD*%
D14*
%TO.C,C8*%
X168656000Y-106680000D03*
X166756000Y-106680000D03*
%TD*%
D17*
%TO.C,U10*%
X156712500Y-80350000D03*
X156712500Y-79700000D03*
X156712500Y-79050000D03*
X156712500Y-78400000D03*
X154437500Y-78400000D03*
X154437500Y-79050000D03*
X154437500Y-79700000D03*
X154437500Y-80350000D03*
%TD*%
D18*
%TO.C,D1*%
X136525000Y-113695000D03*
X136525000Y-115570000D03*
%TD*%
D19*
%TO.C,C33*%
X184150000Y-86655000D03*
X184150000Y-82255000D03*
%TD*%
D15*
%TO.C,C7*%
X167772000Y-99060000D03*
X169672000Y-99060000D03*
%TD*%
D16*
%TO.C,C13*%
X156210000Y-90810000D03*
X156210000Y-92710000D03*
%TD*%
D20*
%TO.C,L1*%
X166345000Y-74295000D03*
X172745000Y-74295000D03*
%TD*%
D21*
%TO.C,C35*%
X160655000Y-80235000D03*
X160655000Y-83185000D03*
%TD*%
D10*
%TO.C,R14*%
X155852500Y-116840000D03*
X154027500Y-116840000D03*
%TD*%
D22*
%TO.C,U4*%
X178757500Y-102534000D03*
X178757500Y-101884000D03*
X178757500Y-101234000D03*
X178757500Y-100584000D03*
X178757500Y-99934000D03*
X178757500Y-99284000D03*
X178757500Y-98634000D03*
X173032500Y-98634000D03*
X173032500Y-99284000D03*
X173032500Y-99934000D03*
X173032500Y-100584000D03*
X173032500Y-101234000D03*
X173032500Y-101884000D03*
X173032500Y-102534000D03*
%TD*%
D23*
%TO.C,U9*%
X168924000Y-81305000D03*
X166624000Y-81305000D03*
D24*
X166624000Y-87605000D03*
D23*
X164324000Y-81305000D03*
%TD*%
D19*
%TO.C,C32*%
X191135000Y-77130000D03*
X191135000Y-72730000D03*
%TD*%
%TO.C,C30*%
X175895000Y-86020000D03*
X175895000Y-81620000D03*
%TD*%
%TO.C,C28*%
X127635000Y-87290000D03*
X127635000Y-82890000D03*
%TD*%
D25*
%TO.C,U3*%
X142890000Y-107450000D03*
X142890000Y-107950000D03*
X142890000Y-108450000D03*
X142890000Y-108950000D03*
D26*
X143652500Y-109212500D03*
X144152500Y-109212500D03*
X144652500Y-109212500D03*
D25*
X145415000Y-108950000D03*
X145415000Y-108450000D03*
X145415000Y-107950000D03*
X145415000Y-107450000D03*
D26*
X144652500Y-107187500D03*
X144152500Y-107187500D03*
X143652500Y-107187500D03*
%TD*%
D27*
%TO.C,C19*%
X176530000Y-96200000D03*
X176530000Y-94300000D03*
%TD*%
D15*
%TO.C,C25*%
X175392000Y-111252000D03*
X177292000Y-111252000D03*
%TD*%
D16*
%TO.C,C12*%
X158750000Y-90810000D03*
X158750000Y-92710000D03*
%TD*%
D28*
%TO.C,R7*%
X182880000Y-97432500D03*
X182880000Y-95607500D03*
%TD*%
D14*
%TO.C,C11*%
X169672000Y-95504000D03*
X167772000Y-95504000D03*
%TD*%
%TO.C,C10*%
X169672000Y-91948000D03*
X167772000Y-91948000D03*
%TD*%
D28*
%TO.C,R2*%
X150495000Y-87272500D03*
X150495000Y-85447500D03*
%TD*%
D14*
%TO.C,C9*%
X168656000Y-104305000D03*
X166756000Y-104305000D03*
%TD*%
D11*
%TO.C,R30*%
X133350000Y-82907500D03*
X133350000Y-84732500D03*
%TD*%
D29*
%TO.C,R29*%
X136247500Y-85725000D03*
X138072500Y-85725000D03*
%TD*%
D10*
%TO.C,R25*%
X185062500Y-114300000D03*
X183237500Y-114300000D03*
%TD*%
D11*
%TO.C,R19*%
X171450000Y-115650000D03*
X171450000Y-117475000D03*
%TD*%
D10*
%TO.C,R5*%
X142541000Y-104775000D03*
X140716000Y-104775000D03*
%TD*%
D16*
%TO.C,C22*%
X173990000Y-89855000D03*
X173990000Y-91755000D03*
%TD*%
D29*
%TO.C,R24*%
X183237500Y-111760000D03*
X185062500Y-111760000D03*
%TD*%
D11*
%TO.C,R16*%
X171196000Y-109855000D03*
X171196000Y-111680000D03*
%TD*%
D15*
%TO.C,C5*%
X151770000Y-93980000D03*
X153670000Y-93980000D03*
%TD*%
D28*
%TO.C,R4*%
X133223000Y-111481000D03*
X133223000Y-109656000D03*
%TD*%
D15*
%TO.C,C3*%
X140147000Y-100711000D03*
X142047000Y-100711000D03*
%TD*%
D11*
%TO.C,R10*%
X185420000Y-93702500D03*
X185420000Y-95527500D03*
%TD*%
D30*
%TO.C,C29*%
X157705000Y-74295000D03*
X160655000Y-74295000D03*
%TD*%
D15*
%TO.C,C27*%
X121478000Y-107950000D03*
X123378000Y-107950000D03*
%TD*%
D27*
%TO.C,C14*%
X132080000Y-91120000D03*
X132080000Y-89220000D03*
%TD*%
D31*
%TO.C,SW1*%
X160745000Y-86995000D03*
X152945000Y-86995000D03*
%TD*%
D32*
%TO.C,U2*%
X135890000Y-89535000D03*
X135890000Y-90485000D03*
X135890000Y-91435000D03*
X138165000Y-91435000D03*
X138165000Y-89535000D03*
%TD*%
D15*
%TO.C,C17*%
X142880000Y-114300000D03*
X144780000Y-114300000D03*
%TD*%
D28*
%TO.C,R3*%
X136525000Y-111504500D03*
X136525000Y-109679500D03*
%TD*%
D33*
%TO.C,J9*%
X186030000Y-117605000D03*
X186830000Y-117605000D03*
D34*
X187980000Y-117605000D03*
X188980000Y-117605000D03*
X189480000Y-117605000D03*
X190480000Y-117605000D03*
D33*
X191630000Y-117605000D03*
X192430000Y-117605000D03*
X192430000Y-117605000D03*
X191630000Y-117605000D03*
D34*
X190980000Y-117605000D03*
X189980000Y-117605000D03*
X188480000Y-117605000D03*
X187480000Y-117605000D03*
D33*
X186830000Y-117605000D03*
X186030000Y-117605000D03*
D35*
X184910000Y-118180000D03*
D36*
X184910000Y-122360000D03*
D35*
X193550000Y-118180000D03*
D36*
X193550000Y-122360000D03*
%TD*%
D29*
%TO.C,R13*%
X158195000Y-116840000D03*
X160020000Y-116840000D03*
%TD*%
D11*
%TO.C,R18*%
X173990000Y-115570000D03*
X173990000Y-117395000D03*
%TD*%
D27*
%TO.C,C15*%
X141605000Y-86995000D03*
X141605000Y-85095000D03*
%TD*%
D28*
%TO.C,R9*%
X182880000Y-105687500D03*
X182880000Y-103862500D03*
%TD*%
D15*
%TO.C,C16*%
X142880000Y-111760000D03*
X144780000Y-111760000D03*
%TD*%
D28*
%TO.C,R27*%
X154940000Y-75485000D03*
X154940000Y-73660000D03*
%TD*%
D37*
%TO.C,U1*%
X151170000Y-98485000D03*
X151170000Y-98985000D03*
X151170000Y-99485000D03*
X151170000Y-99985000D03*
X151170000Y-100485000D03*
X151170000Y-100985000D03*
X151170000Y-101485000D03*
X151170000Y-101985000D03*
X151170000Y-102485000D03*
X151170000Y-102985000D03*
X151170000Y-103485000D03*
X151170000Y-103985000D03*
X151170000Y-104485000D03*
X151170000Y-104985000D03*
X151170000Y-105485000D03*
X151170000Y-105985000D03*
D38*
X153095000Y-107910000D03*
X153595000Y-107910000D03*
X154095000Y-107910000D03*
X154595000Y-107910000D03*
X155095000Y-107910000D03*
X155595000Y-107910000D03*
X156095000Y-107910000D03*
X156595000Y-107910000D03*
X157095000Y-107910000D03*
X157595000Y-107910000D03*
X158095000Y-107910000D03*
X158595000Y-107910000D03*
X159095000Y-107910000D03*
X159595000Y-107910000D03*
X160095000Y-107910000D03*
X160595000Y-107910000D03*
D37*
X162520000Y-105985000D03*
X162520000Y-105485000D03*
X162520000Y-104985000D03*
X162520000Y-104485000D03*
X162520000Y-103985000D03*
X162520000Y-103485000D03*
X162520000Y-102985000D03*
X162520000Y-102485000D03*
X162520000Y-101985000D03*
X162520000Y-101485000D03*
X162520000Y-100985000D03*
X162520000Y-100485000D03*
X162520000Y-99985000D03*
X162520000Y-99485000D03*
X162520000Y-98985000D03*
X162520000Y-98485000D03*
D38*
X160595000Y-96560000D03*
X160095000Y-96560000D03*
X159595000Y-96560000D03*
X159095000Y-96560000D03*
X158595000Y-96560000D03*
X158095000Y-96560000D03*
X157595000Y-96560000D03*
X157095000Y-96560000D03*
X156595000Y-96560000D03*
X156095000Y-96560000D03*
X155595000Y-96560000D03*
X155095000Y-96560000D03*
X154595000Y-96560000D03*
X154095000Y-96560000D03*
X153595000Y-96560000D03*
X153095000Y-96560000D03*
%TD*%
D39*
%TO.C,C34*%
X176640000Y-74930000D03*
X184040000Y-74930000D03*
%TD*%
D16*
%TO.C,C4*%
X163195000Y-109540000D03*
X163195000Y-111440000D03*
%TD*%
D31*
%TO.C,SW2*%
X130175000Y-102325000D03*
X130175000Y-94525000D03*
%TD*%
D14*
%TO.C,C23*%
X157795000Y-111760000D03*
X155895000Y-111760000D03*
%TD*%
D29*
%TO.C,R15*%
X149305000Y-116840000D03*
X151130000Y-116840000D03*
%TD*%
D15*
%TO.C,C21*%
X175900000Y-107188000D03*
X177800000Y-107188000D03*
%TD*%
D11*
%TO.C,R11*%
X185420000Y-98147500D03*
X185420000Y-99972500D03*
%TD*%
D10*
%TO.C,R6*%
X148637000Y-104648000D03*
X146812000Y-104648000D03*
%TD*%
D15*
%TO.C,C26*%
X121544000Y-104140000D03*
X123444000Y-104140000D03*
%TD*%
D11*
%TO.C,R26*%
X145415000Y-84812500D03*
X145415000Y-86637500D03*
%TD*%
D28*
%TO.C,R1*%
X128270000Y-107235000D03*
X128270000Y-105410000D03*
%TD*%
D40*
%TO.C,U7*%
X188380000Y-113762500D03*
D41*
X188305000Y-114300000D03*
D40*
X188380000Y-114837500D03*
X190080000Y-114837500D03*
D41*
X190155000Y-114300000D03*
D40*
X190080000Y-113762500D03*
%TD*%
D11*
%TO.C,R12*%
X185420000Y-102315000D03*
X185420000Y-104140000D03*
%TD*%
D18*
%TO.C,D2*%
X133223000Y-113695000D03*
X133223000Y-115570000D03*
%TD*%
D42*
%TO.C,Y1*%
X146050000Y-100702000D03*
X146050000Y-92202000D03*
%TD*%
D27*
%TO.C,C24*%
X118110000Y-114295000D03*
X118110000Y-112395000D03*
%TD*%
%TO.C,C18*%
X179705000Y-96200000D03*
X179705000Y-94300000D03*
%TD*%
D28*
%TO.C,R8*%
X182880000Y-101877500D03*
X182880000Y-100052500D03*
%TD*%
%TO.C,R17*%
X176530000Y-117395000D03*
X176530000Y-115570000D03*
%TD*%
D27*
%TO.C,C20*%
X173355000Y-96200000D03*
X173355000Y-94300000D03*
%TD*%
D10*
%TO.C,R23*%
X193952500Y-114300000D03*
X192127500Y-114300000D03*
%TD*%
M02*
